<svg xmlns="http://www.w3.org/2000/svg" width="370" height="163" viewBox="0 0 370 163">
    <g fill="#FFF" fill-rule="evenodd">
        <path d="M193.043 27.268c.097.293.192.588.287.88 5.313.102 5.402-1.468 7.747-4.104.02-.91.042-1.848-.283-2.346v-.584h-.862c-.552.451.033 1.598-.29 2.344-.315.739-1.3 1.601-1.723 2.344h-.86v-1.171c-2.07.333-2.617 1.677-4.016 2.637M202.972 27.333c-.507.792-.26 1.577-.88 2.198.189.542.06.309.295.63.046.08 5.062-3.66 6.743-4.398v-.627c-2.539-.011-5.138.608-6.158 2.197"/>
        <path d="M216.701 19.668c-3.159-4.016-6.748-6.76-14.66-4.704.27.92.499 1.006.575 2.302h-.863c-.916-1.55-2.873-6.185-4.899-6.333-.668 1.065-.896 1.751-.861 3.741l.287.29h.574c.087-.671.133-.715.29-1.152.093.096.19.191.288.289 1.286.614 1.662 1.401 2.595 2.301v1.15h-1.155c-.237-1.266-.25-1.6-1.728-1.725.288.862.574 1.725.866 2.59h-.866c.127 1.174.538 1.412.288 2.012-.182.505-.056.279-.288.577-2.024-2.123-3.16-5.631-2.302-9.782.972-1.432 1.872-1.872 3.742-1.44 1.871.432 2.303 3.741 2.303 3.741h1.729c.667-.656 1.252-.826 2.593-.863.182-.505.054-.282.288-.575-3.312-6.923-9.292-7.561-16.991-10.074-1.689-.552-3.313-1.71-5.186-2.013-.096.096-.195.19-.29.288.184.503.056.277.29.575 1.513 4.45 9.268 2.8 11.232 7.77h-.574c-1.006-1.105-2.863-1.036-4.323-1.728-2.53-1.199-12.06-5.426-16.416-2.59-1.145.31-1.79.72-2.018 2.014.192 0 5.207.007 6.915.576 4.215 1.403 9.223 2.872 12.383 5.468h-.573v.289c-6.08-2.045-25.334-9.343-30.821-1.153-.438.546-.514 1.034-.573 2.016 2.527-.146 4.942-1.184 7.198-1.728 4.98-1.199 17.185 1.094 20.45 2.304-.295.231-.079.1-.575.287-2.083 1.245-8.88-.57-11.81-.576-12.846-.02-24.16 2.606-23.906 14.677 2.723-.159 6.933-2.9 9.216-4.03 3.329-1.646 10.296-2.806 10.296-2.806s8.047-3.469 10.73-3.812v.288h-.29c-4.194 4.035-11.12 5.102-16.991 7.481-1.82.737-3.169.365-4.895 1.152-2.376 1.084-6.292 3.011-8.353 4.606-.747.576-1.057 1.911-1.727 2.589-.15 3.228-.275 5.968.861 8.345h.577c.994-6.772 8.652-10.502 14.114-12.951 3.37-1.511 6.882-1.58 10.08-3.164 2.863-1.42 5.278-4.39 8.352-5.469v.575c-3.424 2.272-6.072 5.64-10.08 7.483-1.299.597-2.252.241-3.746.865-6.079 2.533-13.162 5.309-16.128 10.933-3.021 5.739.517 11.14 4.033 13.814.825.626 3.323 3.916 4.32 3.164.232-.291.103-.077.291-.573-3.056-3.253-2.374-12.438-.29-16.116 3.559-6.286 12.677-9.75 19.871-12.662 2.862-1.158 5.55-3.88 8.643-4.607v.578c-3.078 2.03-6.094 4.522-9.506 6.33-1.386.735-2.543.47-4.031 1.151-4.307 1.974-10.333 5.24-12.672 9.21-2.962 5.027-1.755 16.724 2.59 19.857 2.756 1.983 8.81 2.929 12.67 3.452-.393-2.712-1.8-4.965-2.588-7.193-.668-1.881-1.3-3.72-1.682-5.43-1.914-8.53 6.826-19.994 12.336-21.046v.287h-.285c-3.892 3.846-7.553 7.408-9.22 13.527 0 1.15-.94 5.631 0 8.345.943 2.712 2.976 8.209 4.034 13.524 3.93.09 7.518 1.752 10.08 3.453.97.642 1.133 1.406 2.592 1.729.101-10.663-5.532-16.957-6.672-21.001-1.15-4.044-1.438-3.959-1.438-5.398-.098-5.032 3-10.895 7.536-13.316v.289c-1.714 1.32-2.628 3.188-3.455 5.465-3.88 10.659 2.82 18.433 5.76 25.901.853 2.175 1.156 4.103 1.15 6.908-.001 1.292-.453 3.552-.286 3.742.593 1.612 1.905 1.67 3.166 2.59 1.602 1.166 2.634 2.889 3.459 4.892.285-.098.572-.191.864-.289 1.406-2.122 3.094-4.29 4.029-6.906 2.347-6.565-2.326-11.797-4.608-14.965-3.347-4.646-6.639-8.656-8.93-14.39-.585-1.474-2.393-4.45-2.013-6.62.18-1.018.258-1.898 1.152-3.163.89-1.267 1.845-.961 3.168-1.438v1.725c-.62.482-.888.811-.577 1.44.763 4.273 7.2 5.756 7.2 5.756s1.973-.002 2.881.577c1.896 1.205 3.162 3.149 6.046 3.452 1.059-1.998 1.754-4.395 2.304-6.908-.667-.227-.458-1.058-1.89-.556-.232-.819.798-2.994.151-2.707-.648.289-1.523 2.213-1.814 2.123-1.501-.469-3.08-1.227-3.647-2.888-.355-.53-.358-2.52-.358-2.52s.72-2.227 2.95-2.949c2.1-.817 4.764.562 5.265 1.426.504.86.46 2.462.87 2.616.417.153 1.155-1.807 1.644-1.74.535-.792 1.306-1.122 1.729-2.013.46-1.028-.666-1.459-.865-2.59-.1-.546.29-1.418.287-2.303.434-.154.485-.194 1.154-.287v.576c.402.667.084 1.574.286 2.014.339.23.484.223 1.152.288.694-1.604 1.4-2.226 1.44-4.607-1.9-1.148-4.043-2.079-5.5-3.926m-24.164.761c-.02-.471.169-3.83.865-4.602.718 1.64 1.602 4.157-.865 4.602m23.615 2.88h-1.15c-1.374-1.484-4.51-1.277-6.624-2.016l.286-.287c.574-1.503 1.724-1.088 2.015-2.877-.65-.506-1.43-1.456-1.727-2.302h1.153c.626.811 2.166 1.378 2.594 2.302v2.3c.3.761 2.717 2.202 3.453 2.593"/>
        <path d="M205.048 8.02c1.455 1.663 1.78 2.384 2.396 4.561.373.245 2.673.461 3.404.49.175-.485.26-.884.293-1.682-.871-1.1-.93-2.8-1.743-3.928-1.559-2.174-10.067-5.898-13.338-6.456.094.562.19 1.123.286 1.684 2.416 1.54 6.929 3.296 8.702 5.33M195.057 39.212s-.418 5.98 9.53 18.16c2.942 3.94 5.113 9.992 5.113 9.992s3.784-8.97-.91-13.712c-4.694-4.74-13.733-14.44-13.733-14.44M91.054 147.799h-7.603v-.125c.196-.034.39-.09.585-.164.195-.076.347-.18.456-.314.039-.05.073-.124.102-.22.026-.097.05-.208.064-.332.016-.126.03-.259.041-.395.013-.138.018-.279.018-.41 0-.119.002-.275.006-.477.003-.2.009-.424.012-.661.003-.24.006-.485.006-.735v-3.609c0-.152-.006-.29-.018-.42-.011-.129-.029-.245-.052-.347-.026-.1-.061-.18-.107-.236-.112-.144-.26-.256-.445-.33-.186-.076-.38-.122-.586-.15v-.124h3.778v.125c-.101.015-.225.04-.367.073-.143.036-.277.09-.402.166-.128.074-.236.183-.328.32-.089.137-.139.318-.146.547-.009.29-.015.56-.018.802-.006.245-.009.482-.013.72-.003.232-.005.477-.005.727v2.29c0 .216.002.44.005.67.004.23.005.49.005.773.01.27.02.523.031.77.013.24.056.422.126.54.03.04.093.083.19.124.094.042.206.077.34.106.137.031.28.055.441.075.157.023.315.032.473.032.064 0 .163-.002.304-.005.136-.004.288-.014.456-.027.164-.012.334-.031.508-.056.173-.025.327-.058.464-.099.314-.093.577-.214.784-.366.212-.15.39-.324.541-.52.15-.197.277-.41.379-.643.102-.229.2-.472.297-.722l.119.039M105.832 139.109c-.183.117-.326.292-.427.532-.026.06-.05.153-.07.287-.021.132-.04.284-.058.459-.017.172-.028.355-.038.55-.008.194-.012.387-.012.576l-.033 1.19c-.01.44-.027.935-.044 1.49-.01.154-.021.355-.032.592-.012.242-.052.495-.122.765-.067.267-.175.537-.325.805-.148.268-.358.512-.631.73-.272.22-.619.391-1.043.521-.426.13-.947.193-1.567.193-.612 0-1.13-.06-1.55-.186-.42-.125-.765-.292-1.04-.502-.27-.212-.48-.442-.63-.694-.148-.253-.26-.502-.33-.742-.072-.248-.114-.468-.128-.67-.012-.205-.02-.354-.02-.454 0-.232.003-.534.008-.904.002-.374.007-.787.007-1.24v-2.095c0-.15-.007-.288-.02-.415-.014-.13-.033-.247-.057-.349-.026-.103-.065-.183-.114-.24-.122-.142-.266-.243-.44-.305-.174-.063-.373-.104-.594-.13v-.123h3.796v.123c-.116.016-.245.042-.382.073-.134.035-.258.086-.369.156-.11.07-.202.17-.279.292-.077.124-.12.281-.127.473-.01.213-.015.402-.02.57-.005.164-.005.323-.005.483v2.465c0 .19 0 .375.005.554.005.176.006.365.006.563.008.437.077.836.204 1.196s.306.664.535.918c.229.25.51.446.842.581.333.138.71.204 1.133.204.485 0 .895-.054 1.232-.159.335-.11.614-.257.839-.447.225-.19.404-.41.537-.658.13-.247.229-.512.293-.794.063-.28.106-.568.126-.86.021-.293.033-.582.033-.862v-2.108c0-.164-.004-.334-.007-.507-.005-.173-.01-.34-.017-.496-.01-.156-.024-.304-.041-.442-.017-.135-.043-.244-.075-.328-.085-.23-.233-.417-.44-.563-.207-.145-.517-.245-.925-.304v-.123h3.16v.123c-.313.042-.562.12-.744.236M117.557 139.421c-.314.272-.648.63-1.001 1.075-.136.168-.287.358-.451.566l-.5.629c-.17.21-.33.412-.482.607-.153.199-.29.373-.41.523.03.05.1.152.203.302.105.15.227.33.362.542l.446.669c.162.241.315.47.465.687l.403.592c.12.176.209.31.266.4.16.245.308.463.44.655.132.193.263.357.39.497.129.137.263.25.4.34.136.086.288.144.455.17v.124h-3.903v-.125c.111-.018.233-.037.36-.059.132-.02.25-.05.362-.093.114-.043.207-.1.279-.176.071-.075.108-.17.108-.289 0-.117-.054-.274-.157-.47-.105-.199-.226-.405-.362-.623-.184-.3-.396-.631-.631-.988-.237-.355-.508-.755-.814-1.2-.129.159-.27.335-.422.528-.153.193-.306.39-.458.585-.154.198-.3.387-.44.572-.14.185-.258.348-.356.49-.113.168-.213.337-.3.502-.09.17-.133.328-.133.478 0 .117.036.222.11.31.072.087.163.16.276.22.112.057.233.104.36.137.13.032.25.058.362.076v.125h-3.192v-.125c.321-.094.654-.274 1-.548.346-.27.699-.623 1.06-1.05.12-.14.27-.324.447-.546.176-.223.36-.452.552-.69.195-.241.38-.472.555-.698.177-.227.326-.416.446-.567-.047-.065-.159-.227-.33-.483l-.585-.862c-.219-.319-.43-.632-.644-.95-.215-.313-.385-.563-.513-.747-.168-.242-.319-.456-.451-.64-.134-.184-.263-.342-.387-.472-.123-.13-.258-.24-.396-.328-.142-.087-.305-.16-.49-.218v-.125h3.929v.125c-.106.009-.226.025-.362.05-.137.023-.26.058-.374.1-.112.042-.208.1-.288.176-.08.078-.12.172-.12.289 0 .118.055.272.169.465.11.193.24.398.384.615l.615.925.758 1.139c.266-.319.537-.667.814-1.046.278-.375.52-.702.73-.979.096-.134.2-.302.312-.503.112-.199.17-.37.17-.503 0-.118-.038-.217-.114-.3-.077-.086-.17-.156-.28-.216-.106-.058-.227-.104-.354-.139-.13-.032-.244-.058-.35-.073v-.125h3.146v.125c-.41.091-.771.274-1.084.546M131.973 139.109c-.18.117-.325.292-.426.532-.027.06-.05.153-.07.287-.022.132-.041.284-.058.459-.017.172-.03.355-.039.55-.007.194-.014.387-.014.576-.007.357-.019.755-.03 1.19-.011.44-.027.935-.045 1.49-.007.154-.02.355-.032.592-.011.242-.052.495-.122.765-.067.267-.175.537-.325.805-.147.268-.358.512-.629.73-.271.22-.62.391-1.045.521-.426.13-.949.193-1.568.193-.61 0-1.129-.06-1.548-.186-.42-.125-.768-.292-1.04-.502-.27-.212-.48-.442-.629-.694-.15-.253-.26-.502-.332-.742-.072-.248-.114-.468-.128-.67-.013-.205-.019-.354-.019-.454 0-.232.002-.534.006-.904.006-.374.006-.787.006-1.24v-2.095c0-.15-.006-.288-.017-.415-.015-.13-.034-.247-.058-.349-.026-.103-.064-.183-.114-.24-.12-.142-.267-.243-.44-.305-.174-.063-.374-.104-.594-.13v-.123h3.8v.123c-.121.016-.246.042-.385.073-.135.035-.258.086-.367.156-.113.07-.205.17-.282.292-.075.124-.117.281-.127.473-.01.213-.015.402-.021.57-.004.164-.004.323-.004.483v2.465c0 .19 0 .375.004.554.006.176.007.365.007.563.009.437.077.836.204 1.196.13.36.306.664.535.918.23.25.51.446.842.581.333.138.71.204 1.133.204.486 0 .895-.054 1.232-.159.335-.11.617-.257.841-.447.224-.19.402-.41.533-.658.134-.247.231-.512.295-.794.065-.28.107-.568.126-.86.022-.293.034-.582.034-.862v-2.108c0-.164-.005-.334-.008-.507-.004-.173-.01-.34-.02-.496-.007-.156-.02-.304-.036-.442-.018-.135-.045-.244-.076-.328-.086-.23-.234-.417-.44-.563-.208-.145-.518-.245-.923-.304v-.123h3.157v.123c-.313.042-.561.12-.744.236M143.335 147.799c-.07-.074-.126-.13-.157-.17-.032-.038-.066-.082-.108-.131-.04-.051-.09-.123-.148-.22-.059-.095-.154-.242-.283-.435-.15-.23-.285-.444-.4-.633-.116-.187-.234-.373-.353-.557-.119-.183-.25-.37-.388-.558-.14-.19-.306-.4-.499-.635-.158-.192-.331-.371-.52-.54-.187-.168-.385-.271-.59-.313-.154-.032-.27-.05-.349-.05-.07 0-.163-.003-.278-.012v1.416c0 .404.006.744.014 1.016.01.27.015.5.024.693.008.192.054.351.133.478.063.108.187.218.37.33.184.113.438.179.765.197v.124h-3.829v-.124c.2-.035.391-.086.576-.152.182-.067.324-.167.428-.3.04-.05.074-.127.097-.228.023-.1.043-.212.055-.336.01-.129.022-.261.029-.4.008-.146.012-.286.012-.418 0-.118.002-.274.005-.476.004-.2.01-.423.014-.66.003-.239.005-.484.005-.734v-3.178c0-.15-.002-.3-.005-.456-.004-.154-.014-.3-.025-.44-.011-.138-.032-.264-.062-.377-.026-.111-.064-.193-.113-.242-.12-.136-.25-.227-.399-.27-.148-.047-.33-.086-.547-.121v-.124h.492c.271 0 .58-.002.923-.008.344-.004.686-.005 1.028-.005h.838c.534 0 1.009.017 1.425.05.414.035.792.146 1.137.337.352.194.633.455.85.786.216.332.322.747.322 1.248 0 .311-.053.587-.161.836-.108.245-.251.464-.43.652-.179.186-.389.35-.628.484-.24.134-.491.244-.755.338v.037c.136.076.267.186.396.326.127.144.25.302.37.478.209.32.433.66.676 1.028.243.37.462.696.653.981.295.435.582.751.861.955.28.2.607.329.982.389v.124h-2.453zm-1.184-7.82c-.201-.326-.492-.585-.875-.78-.192-.09-.393-.158-.604-.2-.212-.04-.435-.063-.666-.063-.166 0-.304.006-.407.014l-.237.023c-.008.052-.018.097-.028.132-.007.04-.01.085-.017.144-.003.062-.007.142-.01.247-.005.104-.012.252-.019.446-.007.293-.014.623-.017.992-.005.367-.009.723-.009 1.067v1.379c.33 0 .635-.013.92-.042.28-.03.554-.092.817-.182.256-.085.475-.196.66-.34.184-.141.334-.302.45-.485.114-.179.198-.37.257-.582.055-.21.082-.428.082-.651 0-.42-.1-.793-.297-1.12zM157.239 139.05c-.17.083-.329.193-.474.328-.145.133-.283.29-.416.477-.13.185-.276.392-.428.628-.102.16-.246.376-.429.647-.183.273-.371.556-.563.85-.19.292-.379.573-.556.841-.18.27-.321.478-.423.63v2.523c0 .247.005.483.019.713.013.23.052.393.121.486.128.183.295.304.499.362.205.058.403.105.59.14v.124h-3.94v-.124c.22-.026.413-.066.58-.12.166-.057.343-.188.53-.396.045-.044.075-.115.097-.215.02-.101.038-.213.052-.339.011-.126.02-.26.025-.403.004-.142.006-.28.006-.414.008-.236.016-.512.019-.836.004-.321.008-.715.008-1.176-.019-.024-.07-.104-.154-.237l-.314-.497c-.123-.199-.26-.417-.41-.662-.148-.242-.297-.479-.44-.708-.147-.23-.282-.45-.412-.648-.126-.201-.233-.365-.318-.492-.163-.241-.312-.465-.441-.664-.135-.203-.267-.373-.404-.516-.136-.143-.271-.256-.402-.34-.134-.08-.284-.129-.457-.139v-.123h3.88v.123c-.128.01-.258.02-.385.04-.127.019-.247.042-.358.08-.112.038-.202.086-.269.152-.068.06-.104.147-.104.257 0 .109.065.275.188.497.124.22.253.447.39.671.094.15.202.336.333.547.127.213.269.442.421.679.155.24.312.483.467.737.157.251.304.49.443.715.11-.158.246-.36.408-.61l.493-.752c.168-.257.323-.502.473-.737.15-.234.262-.42.34-.554.043-.066.09-.143.141-.23.05-.088.101-.183.145-.279.049-.095.09-.192.123-.293.035-.104.051-.195.051-.278 0-.133-.034-.237-.102-.315-.068-.076-.156-.133-.26-.176-.11-.04-.226-.073-.354-.091-.128-.024-.252-.043-.37-.06v-.123h2.955v.123c-.24.036-.444.093-.614.177M175.342 147.799h-7.434v-.125c.202-.034.39-.09.563-.164.176-.076.318-.18.433-.314.04-.05.071-.124.095-.22.025-.097.048-.208.068-.332.02-.126.035-.259.044-.395.005-.138.011-.279.011-.41 0-.119.002-.275.005-.477.004-.2.01-.424.014-.661.003-.24.007-.485.007-.735v-3.183c0-.15-.004-.302-.007-.463-.004-.16-.014-.31-.026-.452-.011-.145-.032-.27-.061-.384-.028-.113-.066-.195-.115-.247-.122-.132-.25-.218-.388-.257-.138-.037-.317-.07-.535-.105v-.125h6.708l.824 2.072-.121.064c-.656-.846-1.272-1.416-1.846-1.712-.138-.066-.393-.123-.765-.174-.374-.052-.828-.076-1.361-.076-.172 0-.347.007-.53.02-.181.013-.315.027-.393.043-.018.133-.032.412-.045.83-.01.42-.017.904-.017 1.458v.805c0 .216.003.397.008.534.002.14.006.245.006.32v.139h.241c.122 0 .262-.003.42-.013.157-.007.317-.019.473-.03.157-.012.29-.03.395-.056.243-.061.446-.142.608-.24.16-.1.294-.222.395-.365.101-.142.184-.308.244-.497.059-.189.113-.399.163-.634h.144v3.958h-.144c-.066-.266-.163-.544-.299-.828-.134-.284-.271-.5-.418-.642-.13-.117-.286-.214-.466-.29-.184-.075-.397-.12-.64-.136-.122-.01-.223-.017-.303-.02-.081-.003-.162-.007-.244-.007h-.558c-.017.116-.025.29-.025.515v1.51c0 .133.003.264.008.384.002.122.006.222.006.307.005.27.021.522.042.761.018.238.066.417.14.535.073.115.247.2.522.251.274.048.575.074.897.074.138 0 .314-.004.53-.01.213-.011.439-.031.674-.064.258-.034.497-.099.717-.195.218-.096.43-.234.632-.41.201-.175.398-.393.59-.647.19-.256.383-.564.587-.922l.136.036M198.933 142.221c-.093.254-.217.475-.37.665-.153.192-.33.356-.535.498-.202.136-.409.247-.622.329-.22.085-.455.147-.705.19-.251.038-.502.073-.758.095-.253.019-.504.03-.743.03h-.64v1.176c0 .144.004.275.008.397.004.12.005.252.005.394l.024.689c.007.192.053.35.13.478.064.106.185.215.365.323.179.109.429.17.752.19v.124h-3.76v-.123c.196-.034.382-.086.564-.153.181-.066.32-.166.423-.3.038-.05.07-.127.091-.227.027-.1.044-.212.057-.336.011-.127.02-.26.028-.401.008-.144.01-.283.01-.414 0-.118.004-.275.009-.477.003-.2.009-.42.01-.657.006-.239.006-.485.006-.734v-3.172c0-.15 0-.3-.006-.456-.001-.154-.01-.299-.023-.436-.012-.14-.031-.267-.057-.38-.03-.11-.068-.19-.115-.241-.117-.135-.266-.225-.452-.27-.183-.047-.382-.085-.591-.12v-.125h.282c.146 0 .32 0 .52-.006.2-.004.417-.005.652-.005.238 0 .468-.002.701-.007.232-.007.446-.009.653-.009h.527c.516 0 .977.03 1.374.083.4.057.776.185 1.13.395.344.2.63.485.858.85.224.37.341.806.341 1.306 0 .308-.05.589-.143.837m-1.473-2.19c-.232-.377-.536-.66-.914-.854-.185-.09-.385-.156-.595-.188-.212-.032-.433-.049-.66-.049-.164 0-.293.007-.382.02-.09.01-.162.021-.218.029-.007.053-.017.094-.027.131-.012.04-.025.084-.031.144-.008.06-.018.14-.024.246-.009.104-.017.25-.022.445-.007.292-.015.647-.02 1.064-.003.418-.006.829-.006 1.227v1.605c.322 0 .623-.01.906-.031.282-.021.545-.077.788-.168.501-.186.885-.486 1.151-.91.269-.422.399-.894.399-1.422 0-.485-.114-.913-.345-1.289M210.533 147.799h-7.435v-.125c.204-.034.39-.09.564-.164.176-.076.318-.18.432-.314.039-.05.073-.124.096-.22.026-.097.047-.208.068-.332.02-.126.034-.259.043-.395.007-.138.011-.279.011-.41 0-.119.005-.275.008-.477l.012-.661c.003-.24.005-.485.005-.735v-3.183c0-.15-.002-.302-.005-.463-.004-.16-.012-.31-.024-.452-.014-.145-.035-.27-.063-.384-.028-.113-.066-.195-.115-.247-.12-.132-.249-.218-.389-.257-.138-.037-.314-.07-.534-.105v-.125h6.707l.825 2.072-.119.064c-.66-.846-1.275-1.416-1.85-1.712-.135-.066-.39-.123-.763-.174-.374-.052-.828-.076-1.361-.076-.17 0-.348.007-.53.02-.181.013-.315.027-.393.043-.018.133-.033.412-.045.83-.01.42-.017.904-.017 1.458v.805c0 .216.002.397.007.534.004.14.004.245.004.32v.139h.246c.12 0 .26-.003.419-.013.158-.007.314-.019.471-.03.16-.012.29-.03.395-.056.246-.061.447-.142.606-.24.164-.1.295-.222.397-.365.1-.142.183-.308.243-.497s.115-.399.165-.634h.143v3.958h-.143c-.066-.266-.165-.544-.299-.828-.134-.284-.272-.5-.419-.642-.131-.117-.285-.214-.466-.29-.184-.075-.397-.12-.64-.136-.12-.01-.222-.017-.302-.02-.08-.003-.161-.007-.244-.007h-.559c-.016.116-.024.29-.024.515v1.51c0 .133.002.264.007.384.004.122.004.222.004.307.006.27.024.522.043.761.02.238.066.417.141.535.072.115.246.2.523.251.274.048.575.074.897.074.14 0 .313-.004.528-.01.218-.011.44-.031.679-.064.254-.034.496-.099.712-.195.22-.096.432-.234.632-.41.205-.175.4-.393.592-.647.19-.256.382-.564.588-.922l.134.036M222.766 147.799c-.073-.074-.126-.13-.158-.17l-.108-.131c-.038-.051-.089-.123-.147-.22-.06-.095-.156-.242-.285-.435-.148-.23-.283-.444-.4-.633-.115-.187-.232-.373-.353-.557-.119-.183-.247-.37-.387-.558-.138-.19-.305-.4-.496-.635-.161-.192-.335-.371-.52-.54-.192-.168-.387-.271-.595-.313-.152-.032-.267-.05-.346-.05-.073 0-.163-.003-.277-.012v1.416c0 .404.004.744.012 1.016l.023.693c.01.192.054.351.134.478.065.108.187.218.369.33.185.113.44.179.767.197v.124h-3.83v-.124c.201-.035.391-.086.575-.152.183-.067.327-.167.43-.3.04-.05.072-.127.098-.228.023-.1.043-.212.051-.336.014-.129.022-.261.032-.4.006-.146.012-.286.012-.418 0-.118.002-.274.005-.476.004-.2.01-.423.013-.66.004-.239.004-.484.004-.734v-3.178c0-.15 0-.3-.004-.456-.004-.154-.013-.3-.025-.44-.01-.138-.032-.264-.058-.377-.028-.111-.067-.193-.118-.242-.117-.136-.25-.227-.398-.27-.148-.047-.33-.086-.543-.121v-.124h.49c.27 0 .577-.002.92-.008.343-.004.687-.005 1.03-.005h.838c.533 0 1.008.017 1.424.05.415.035.795.146 1.137.337.352.194.635.455.852.786.215.332.321.747.321 1.248 0 .311-.057.587-.163.836-.106.245-.249.464-.43.652-.179.186-.387.35-.63.484-.235.134-.488.244-.752.338v.037c.137.076.267.186.395.326.13.144.252.302.372.478l.675 1.028c.246.37.46.696.654.981.293.435.581.751.86.955.28.2.607.329.981.389v.124h-2.451zm-1.187-7.82c-.199-.326-.49-.585-.873-.78-.19-.09-.393-.158-.606-.2-.209-.04-.43-.063-.664-.063-.166 0-.305.006-.406.014l-.238.023c-.01.052-.017.097-.025.132-.01.04-.013.085-.017.144-.007.062-.007.142-.011.247-.008.104-.013.252-.021.446-.007.293-.012.623-.018.992-.004.367-.006.723-.006 1.067v1.379c.326 0 .634-.013.916-.042.283-.03.557-.092.822-.182.252-.085.472-.196.657-.34.186-.141.333-.302.447-.485.117-.179.204-.37.261-.582.054-.21.083-.428.083-.651 0-.42-.1-.793-.3-1.12zM229.24 147.799v-.125c.219-.034.426-.09.616-.164.191-.076.353-.184.486-.326.043-.05.077-.123.097-.213.025-.093.042-.203.055-.327.016-.126.022-.259.026-.395.003-.138.005-.279.005-.41 0-.119.002-.275.01-.477.002-.2.008-.424.012-.661.006-.24.007-.485.007-.735v-3.632c0-.152-.007-.294-.019-.422-.015-.131-.034-.25-.061-.354-.027-.103-.068-.183-.12-.242-.123-.145-.277-.246-.46-.31-.178-.063-.384-.104-.614-.131v-.125h3.97v.125c-.186.027-.387.071-.6.138-.212.066-.375.2-.491.403-.08.142-.118.32-.126.539-.004.217-.01.425-.02.616 0 .21-.001.417-.007.625-.002.203-.005.411-.005.618v4.212c0 .244.005.477.013.707.009.222.048.381.12.476.105.143.275.251.504.327.23.074.439.12.623.138v.125M244.718 147.799h-7.435v-.125c.204-.034.39-.09.566-.164.173-.076.315-.18.429-.314.043-.05.076-.124.098-.22.025-.097.048-.208.07-.332.019-.126.03-.259.04-.395.007-.138.01-.279.01-.41 0-.119.004-.275.007-.477.003-.2.01-.424.014-.661.005-.24.005-.485.005-.735v-3.183c0-.15 0-.302-.005-.463-.004-.16-.014-.31-.027-.452-.01-.145-.032-.27-.058-.384-.029-.113-.067-.195-.115-.247-.123-.132-.252-.218-.388-.257-.139-.037-.318-.07-.536-.105v-.125h6.707l.826 2.072-.121.064c-.658-.846-1.273-1.416-1.849-1.712-.137-.066-.392-.123-.765-.174-.373-.052-.825-.076-1.361-.076-.17 0-.346.007-.529.02-.182.013-.314.027-.392.043-.019.133-.032.412-.046.83-.01.42-.015.904-.015 1.458v.805c0 .216.002.397.005.534.005.14.007.245.007.32v.139h.242c.12 0 .262-.003.42-.013.158-.007.315-.019.473-.03.157-.012.288-.03.395-.056.243-.061.445-.142.606-.24.16-.1.295-.222.397-.365.099-.142.182-.308.243-.497.058-.189.113-.399.163-.634h.147v3.958h-.147c-.064-.266-.163-.544-.297-.828-.137-.284-.274-.5-.421-.642-.128-.117-.284-.214-.466-.29-.184-.075-.396-.12-.638-.136-.12-.01-.225-.017-.305-.02-.08-.003-.16-.007-.242-.007h-.559c-.017.116-.023.29-.023.515v1.51c0 .133.002.264.005.384.005.122.007.222.007.307.005.27.022.522.04.761.023.238.068.417.141.535.07.115.245.2.522.251.274.048.575.074.899.074.138 0 .311-.004.528-.01.216-.011.44-.031.676-.064.256-.034.497-.099.714-.195.218-.096.43-.234.634-.41.203-.175.398-.393.59-.647.189-.256.387-.564.59-.922l.132.036M259.673 139.112c-.188.118-.33.296-.429.537-.057.127-.093.359-.109.697-.019.335-.034.697-.052 1.081-.015.358-.03.783-.044 1.27-.01.49-.017 1.013-.017 1.57v.805c0 .288.002.59.006.893.004.304.006.606.006.907v.814c0 .034-.01.06-.032.081-.019.021-.05.032-.091.032-.067 0-.141-.042-.221-.125-.703-.819-1.342-1.57-1.919-2.254l-1.65-1.956c-.524-.625-1.036-1.232-1.54-1.823-.503-.592-1.034-1.206-1.595-1.84v5.281c0 .426.01.811.03 1.152.02.343.072.596.155.762.091.195.232.337.428.432.188.096.458.165.796.208v.124h-3.042v-.124c.199-.025.396-.079.594-.158.197-.078.352-.209.471-.394.114-.174.187-.432.22-.775.034-.342.056-.751.076-1.227.016-.358.027-.783.036-1.27.009-.489.013-1.012.013-1.57v-1.53c0-.163-.004-.366-.013-.612-.023-.238-.082-.441-.172-.595-.091-.153-.198-.275-.323-.361-.124-.09-.258-.148-.402-.188-.145-.037-.282-.065-.414-.082v-.124h2.51l5.864 6.934v-4.257c0-.332-.005-.654-.014-.957-.007-.304-.043-.543-.11-.72-.083-.233-.23-.421-.438-.57-.212-.145-.515-.246-.909-.306v-.124h3.066v.124c-.309.043-.552.122-.735.238M273.323 141.775c-.112-.392-.283-.759-.507-1.101-.222-.343-.489-.64-.792-.894-.308-.252-.654-.453-1.035-.6-.387-.146-.796-.218-1.226-.218-.596 0-1.127.124-1.592.377-.467.255-.855.587-1.173 1.004-.313.414-.556.886-.721 1.413-.172.526-.258 1.068-.258 1.622 0 .589.09 1.137.269 1.651.173.515.427.963.756 1.343.327.38.726.679 1.191.9.465.22.985.332 1.552.332.449 0 .871-.078 1.264-.234.392-.155.742-.36 1.048-.611.305-.254.566-.544.778-.877.211-.33.353-.669.432-1.021h.156l-.039 2.693h-.155c-.102-.138-.212-.265-.324-.379-.112-.115-.19-.174-.233-.174-.017 0-.093.045-.233.129-.138.087-.336.18-.595.284-.258.1-.576.19-.945.269-.37.078-.799.116-1.281.116-.803 0-1.53-.108-2.176-.326-.648-.215-1.196-.52-1.652-.919-.452-.392-.798-.867-1.042-1.417-.24-.55-.36-1.16-.36-1.82 0-.147.01-.314.032-.502.023-.186.059-.387.116-.6.057-.21.132-.433.233-.666.099-.233.225-.466.383-.707.18-.274.405-.541.672-.792.268-.255.582-.477.945-.67.363-.191.772-.343 1.23-.456.458-.116.97-.174 1.54-.174.519 0 .972.045 1.36.136.387.09.714.187.97.294.26.104.457.204.595.295.14.087.218.132.235.132.017 0 .048-.017.096-.053.048-.038.1-.082.156-.138.055-.051.115-.112.176-.182.06-.069.117-.139.17-.214h.14v2.743M284.935 147.799H277.5v-.125c.202-.034.389-.09.565-.164.173-.076.313-.18.432-.314.038-.05.072-.124.095-.22.026-.097.047-.208.068-.332.02-.126.032-.259.04-.395.009-.138.013-.279.013-.41 0-.119.004-.275.007-.477.003-.2.006-.424.012-.661.003-.24.005-.485.005-.735v-3.183c0-.15-.002-.302-.005-.463-.006-.16-.012-.31-.025-.452-.012-.145-.032-.27-.06-.384-.03-.113-.066-.195-.114-.247-.122-.132-.254-.218-.39-.257-.14-.037-.318-.07-.536-.105v-.125h6.708l.828 2.072-.124.064c-.658-.846-1.27-1.416-1.846-1.712-.137-.066-.392-.123-.767-.174-.371-.052-.824-.076-1.359-.076-.17 0-.346.007-.53.02-.181.013-.313.027-.394.043-.016.133-.03.412-.043.83-.01.42-.016.904-.016 1.458v.805c0 .216 0 .397.005.534.003.14.005.245.005.32v.139h.245c.12 0 .261-.003.418-.013.156-.007.317-.019.475-.03.156-.012.288-.03.392-.056.244-.061.447-.142.608-.24.16-.1.293-.222.398-.365.099-.142.18-.308.24-.497s.115-.399.163-.634h.148v3.958h-.148c-.063-.266-.163-.544-.295-.828-.135-.284-.275-.5-.421-.642-.13-.117-.285-.214-.466-.29-.183-.075-.396-.12-.638-.136-.122-.01-.224-.017-.307-.02-.078-.003-.159-.007-.24-.007h-.56c-.017.116-.022.29-.022.515v1.51c0 .133 0 .264.005.384.003.122.005.222.005.307.006.27.024.522.043.761.02.238.068.417.138.535.073.115.246.2.525.251.276.048.574.074.899.074.138 0 .31-.004.528-.01.213-.011.439-.031.674-.064.258-.034.5-.099.716-.195.219-.096.43-.234.634-.41.203-.175.399-.393.59-.647.187-.256.384-.564.587-.922l.135.036M24.662 114.11c0 7.497-4.616 12.064-12.475 12.064-5.366 0-9.442-2.878-11.353-7.205h4.823c.665.91 2.453 3.295 6.57 3.295 4.573-.042 8.108-2.142 8.108-8.07h-.083c-.789 1.07-3.074 3.583-7.942 3.583C4.7 117.777 0 111.27 0 105.714c0-5.065 4.034-11.94 12.394-11.94 3.41 0 6.403 1.522 7.94 3.252V94.39h4.328v19.72zM12.31 97.685c-4.573 0-7.984 3.788-7.984 8.11 0 4.118 3.326 8.07 7.943 8.07 5.655 0 8.066-5.103 8.066-8.029 0-6.422-5.364-8.15-8.025-8.15zM31.168 92.446h4.022v-4.973h-4.022v4.973zm0 25.19h4.022V95.054h-4.022v22.582zM53.288 117.636c-7.506 0-12.065-6.418-12.065-12.211 0-6.25 5.124-11.92 12.065-11.92 6.779 0 12.065 5.463 12.065 12.003 0 5.586-4.48 12.128-12.065 12.128m0-20.199c-4.722 0-7.87 4.014-7.87 8.113 0 4.137 3.187 8.152 7.87 8.152 4.52 0 7.866-3.85 7.866-8.194 0-4.057-3.146-8.07-7.866-8.07M70.38 117.636V95.12h4.064v2.033h.084c1.843-2.52 4.817-2.603 5.907-2.642v4.348c-.672 0-2.095.286-3.141.813-1.382.73-2.557 2.44-2.557 5.647v12.317M107.582 114.705c0 7.444-4.516 11.98-12.206 11.98-5.25 0-9.238-2.858-11.108-7.155h4.719c.65.903 2.401 3.272 6.43 3.272 4.474-.041 7.932-2.127 7.932-8.013h-.08c-.773 1.061-3.01 3.558-7.772 3.558-7.447 0-12.046-6.462-12.046-11.98 0-5.029 3.948-11.856 12.127-11.856 3.338 0 6.267 1.512 7.771 3.23v-2.616h4.233v19.58zm-12.085-16.31c-4.474 0-7.814 3.762-7.814 8.054 0 4.089 3.256 8.012 7.774 8.012 5.533 0 7.892-5.066 7.892-7.972 0-6.377-5.248-8.093-7.852-8.093zM114.62 92.446h4.021v-4.973h-4.021v4.973zm0 25.19h4.021V95.054h-4.021v22.582zM136.74 117.636c-7.504 0-12.066-6.418-12.066-12.211 0-6.25 5.125-11.92 12.065-11.92 6.78 0 12.065 5.463 12.065 12.003 0 5.586-4.479 12.128-12.065 12.128m0-20.199c-4.72 0-7.867 4.014-7.867 8.113 0 4.137 3.187 8.152 7.867 8.152 4.52 0 7.868-3.85 7.868-8.194 0-4.057-3.148-8.07-7.868-8.07M183.242 101.74c-.706-1.447-2.366-4.302-6.477-4.302-5.563 0-7.557 4.634-7.557 8.113 0 3.972 2.532 8.153 7.474 8.153 3.24 0 5.44-1.864 6.518-4.224h4.816c-1.743 5.091-6.226 8.156-11.334 8.156-7.556 0-11.79-6.17-11.79-12.085 0-6.209 4.565-12.046 11.832-12.046 6.518 0 10.418 4.843 11.292 8.235M204.102 117.636c-7.502 0-12.064-6.418-12.064-12.211 0-6.25 5.127-11.92 12.064-11.92 6.781 0 12.066 5.463 12.066 12.003 0 5.586-4.478 12.128-12.066 12.128m0-20.199c-4.719 0-7.865 4.014-7.865 8.113 0 4.137 3.187 8.152 7.865 8.152 4.52 0 7.87-3.85 7.87-8.194 0-4.057-3.148-8.07-7.87-8.07M233.261 117.636L237.283 117.636 237.283 87.473 233.261 87.473zM246.562 107.453c1.06 4.43 4.572 6.251 7.434 6.251 3.145 0 5.433-1.863 6.455-3.85h4.248c-2.167 5.921-7.353 7.782-10.868 7.782-6.412 0-11.521-5.59-11.521-12.084 0-6.872 5.23-12.047 11.603-12.047 6.13 0 11.48 5.053 11.522 11.756 0 .745-.084 1.902-.125 2.192h-18.748zm14.624-3.31c-.203-3.352-3.227-6.706-7.315-6.706-4.084 0-7.106 3.354-7.309 6.706h14.624zM287.81 101.74c-.707-1.447-2.369-4.302-6.479-4.302-5.562 0-7.555 4.634-7.555 8.113 0 3.972 2.534 8.153 7.473 8.153 3.236 0 5.442-1.864 6.52-4.224h4.813c-1.742 5.091-6.228 8.156-11.333 8.156-7.556 0-11.792-6.17-11.792-12.085 0-6.209 4.568-12.046 11.833-12.046 6.52 0 10.42 4.843 11.292 8.235M302.931 117.636L298.671 117.636 298.671 98.925 295.598 98.925 295.598 95.055 298.671 95.055 298.671 87.473 302.931 87.473 302.931 95.055 306.658 95.055 306.658 98.925 302.931 98.925M310.68 92.446h4.021v-4.973h-4.022v4.973zm0 25.19h4.021V95.054h-4.022v22.582zM332.799 117.636c-7.505 0-12.065-6.418-12.065-12.211 0-6.25 5.124-11.92 12.065-11.92 6.78 0 12.065 5.463 12.065 12.003 0 5.586-4.482 12.128-12.065 12.128m0-20.199c-4.722 0-7.867 4.014-7.867 8.113 0 4.137 3.187 8.152 7.867 8.152 4.52 0 7.869-3.85 7.869-8.194 0-4.057-3.147-8.07-7.87-8.07M365.75 117.636v-12.234c0-1.746 0-7.03-5.642-7.03-3.556 0-5.964 2.477-5.964 6.99v12.274h-4.253V95.12h3.961v2.397h.084c2.29-3.006 5.723-3.006 6.62-3.006 3.517 0 6.379 1.504 8.011 4.023.902 1.463 1.39 3.25 1.433 5.771v13.33M186.933 139.423c-.313.272-.646.632-1.001 1.077-.136.165-.287.355-.452.563-.164.209-.33.419-.5.628-.17.211-.329.413-.48.61-.154.198-.29.37-.411.52.032.05.1.154.205.304.102.148.225.332.362.54.136.206.284.433.444.67l.464.687c.15.216.286.414.404.592.122.173.21.308.267.398.159.245.305.462.44.656.132.191.262.357.39.495.127.14.26.252.398.34.135.086.288.145.46.17v.126h-3.907v-.127c.111-.014.232-.034.362-.054.13-.022.25-.055.36-.098.113-.04.206-.1.278-.174.072-.077.11-.17.11-.29 0-.117-.053-.273-.157-.469-.107-.198-.224-.404-.363-.622-.185-.303-.394-.632-.63-.987-.24-.357-.51-.758-.817-1.2-.126.159-.268.335-.419.527l-.459.584-.44.573c-.14.185-.259.346-.357.49-.11.168-.21.335-.298.501-.09.169-.132.326-.132.478 0 .117.036.22.106.308.073.087.164.161.277.22.113.057.233.104.363.137.128.035.248.062.36.076v.127h-3.193v-.127c.321-.091.654-.274 1.002-.546.344-.272.698-.622 1.059-1.048.12-.144.269-.325.447-.548.175-.222.36-.453.553-.693.191-.237.377-.468.553-.695.178-.227.327-.415.447-.565-.046-.066-.16-.229-.33-.483-.173-.257-.367-.543-.586-.864l-.644-.95c-.213-.31-.385-.562-.513-.746-.17-.24-.319-.455-.451-.639-.134-.184-.262-.342-.387-.472-.125-.128-.257-.24-.396-.326-.142-.088-.305-.161-.488-.218v-.129h3.926v.129c-.102.007-.222.023-.359.05-.137.023-.264.056-.375.1-.11.038-.208.099-.29.176-.08.075-.119.171-.119.289 0 .116.058.274.169.464.111.192.24.396.384.615.202.302.408.609.617.924.208.313.46.692.759 1.137.265-.318.535-.665.814-1.043.277-.376.52-.702.729-.98.095-.135.2-.3.311-.503.111-.199.169-.367.169-.502 0-.119-.037-.216-.116-.301-.074-.085-.166-.158-.276-.214-.106-.06-.225-.106-.352-.139-.13-.033-.247-.058-.352-.073v-.129h3.144v.129c-.411.09-.77.274-1.083.544M139.818 162.88v-.091c.247-.01.454-.062.62-.152.166-.09.279-.192.336-.309.034-.073.06-.164.078-.273.016-.109.028-.218.034-.33.012-.37.017-.721.017-1.057v-3.408c-.19.41-.363.792-.52 1.137-.158.348-.315.686-.47 1.015-.155.33-.312.665-.47 1.01-.157.343-.33.722-.521 1.135-.028.057-.069.143-.12.264-.05.12-.104.243-.155.367-.052.126-.1.24-.147.345-.045.103-.074.17-.085.206h-.053l-.546-1.233c-.182-.407-.357-.8-.529-1.177-.173-.376-.333-.73-.483-1.06-.15-.33-.284-.622-.405-.88-.12-.256-.219-.472-.297-.643-.077-.174-.13-.292-.158-.352 0 .367-.003.693-.006.974-.002.283-.004.562-.008.84-.003.275-.004.567-.004.874v1.072c0 .264.009.49.026.683.017.193.06.355.129.487.069.131.174.234.314.31.14.075.335.13.582.163v.083h-2.249v-.083c.202-.04.365-.096.491-.172.127-.075.227-.18.303-.314.073-.133.129-.3.163-.499.035-.197.055-.44.06-.724.011-.24.02-.524.025-.85.007-.328.01-.678.01-1.052v-1.057c0-.11-.003-.247-.01-.41-.005-.156-.04-.284-.103-.38-.063-.099-.138-.176-.223-.231-.087-.057-.179-.097-.275-.122-.098-.025-.182-.042-.251-.054v-.084h1.834l2.06 4.558c.251-.531.498-1.059.74-1.583.241-.525.457-1 .65-1.426.19-.423.35-.776.473-1.059.123-.281.193-.445.21-.49h1.835v.084c-.235.005-.414.053-.538.142-.124.09-.208.195-.254.32-.034.094-.057.24-.07.443-.01.2-.019.398-.024.594-.007.269-.01.529-.01.78v1.667c0 .297.003.609.01.938 0 .106.006.214.022.323.013.11.038.194.072.255.007.012.026.038.065.08.037.042.09.087.158.135.07.046.156.09.26.124.102.037.224.058.36.064v.083M148.521 162.88v-.081c.016 0 .054-.006.114-.017.06-.01.123-.03.188-.057.066-.028.124-.066.174-.115.049-.05.075-.112.075-.189 0-.051-.015-.13-.045-.243-.027-.112-.069-.25-.121-.41-.052-.162-.112-.342-.18-.54-.069-.198-.142-.403-.22-.616h-2.09c-.078.21-.155.408-.228.596l-.22.571c-.11.296-.165.504-.165.625 0 .07.021.13.063.176.042.047.096.086.161.116.065.03.136.05.212.065l.217.038v.081h-1.673v-.09c.136-.016.252-.055.348-.116.097-.06.153-.1.17-.122.036-.039.096-.129.18-.272.083-.142.186-.353.306-.632.111-.258.233-.55.37-.88l.42-1.015c.144-.347.287-.698.428-1.052l.4-.99-.078-.18c.095-.044.18-.097.255-.156.076-.062.143-.125.2-.19.058-.066.107-.128.146-.19.04-.06.07-.107.09-.147h.063l.463 1.295c.147.408.287.8.421 1.18l.389 1.096c.126.354.252.703.378 1.047.057.172.11.312.16.424.05.112.107.24.169.383.01.022.034.06.07.115.037.054.086.11.146.168.06.058.135.108.224.15.088.046.193.07.314.076v.098h-2.294zm-1.028-4.98c-.032.071-.078.183-.138.339-.06.151-.135.338-.224.556-.09.22-.187.468-.295.745l-.35.9h1.957c-.089-.246-.18-.493-.272-.741l-.267-.711-.236-.624c-.07-.189-.128-.343-.175-.464zM159.726 160.89c-.093.318-.22.59-.379.82-.16.228-.345.418-.556.568-.212.151-.435.27-.673.36-.237.09-.481.152-.733.19-.253.035-.497.052-.734.052h-2.82v-.083c.13-.016.254-.053.375-.11.12-.055.213-.122.274-.2.027-.027.046-.075.058-.141.013-.068.025-.144.035-.227.01-.083.018-.172.023-.267.005-.096.008-.186.008-.276 0-.079.001-.185.004-.318l.007-.44c.003-.159.005-.321.005-.489v-2.418c0-.1-.005-.194-.012-.28-.008-.087-.02-.165-.035-.235-.015-.07-.039-.123-.07-.163-.077-.1-.17-.17-.277-.21-.108-.038-.23-.066-.363-.083v-.084c.215 0 .527 0 .935-.004.406-.002.898-.004 1.474-.004h.495c.17 0 .339.008.51.025.17.016.339.045.51.084.17.04.336.097.501.176.218.1.42.228.61.385.192.156.357.341.5.556.14.215.254.464.34.745.084.282.126.604.126.966 0 .419-.046.786-.138 1.104m-.951-2.033c-.092-.307-.221-.584-.385-.833-.165-.248-.361-.458-.588-.63-.227-.174-.474-.285-.741-.335-.104-.023-.217-.04-.34-.056-.124-.013-.276-.019-.457-.019l-.2.003c-.072.003-.143.009-.212.016-.07.01-.134.016-.193.022-.06.006-.107.014-.144.025-.025.273-.04.65-.047 1.13-.004.48-.007 1.052-.007 1.715v.978c0 .29.003.527.007.712 0 .078.005.164.013.254.007.094.017.182.027.27.01.085.027.163.05.234.023.069.05.121.081.155.102.11.233.181.39.212.157.03.305.046.444.046.13 0 .262-.008.398-.02.137-.014.263-.04.383-.08.556-.173.971-.51 1.247-1.007.276-.5.413-1.116.413-1.847 0-.323-.047-.639-.139-.945M167.528 162.88h-4.648v-.083c.126-.022.245-.058.353-.11.11-.05.198-.119.27-.209.025-.033.045-.082.06-.147.015-.064.03-.138.042-.221.014-.085.022-.171.027-.265.004-.092.007-.182.007-.27 0-.08.001-.186.005-.32 0-.135.004-.28.007-.44.003-.159.003-.322.003-.49v-2.12c0-.1 0-.204-.003-.31-.003-.107-.007-.207-.015-.302-.009-.095-.02-.18-.039-.255-.017-.075-.041-.13-.072-.164-.075-.088-.158-.146-.243-.172-.086-.024-.197-.049-.334-.07v-.084h4.192l.516 1.382-.075.041c-.41-.564-.794-.943-1.155-1.137-.086-.046-.244-.085-.478-.119-.233-.033-.516-.05-.85-.05-.107 0-.216.004-.331.013-.114.008-.195.017-.248.029-.008.09-.017.274-.026.553-.007.28-.01.604-.01.971v.537c0 .147 0 .264.003.357.003.09.003.163.003.212v.094h.152c.078 0 .164-.003.263-.009.099-.006.197-.014.296-.021.098-.009.18-.021.247-.037.152-.04.278-.093.38-.16.1-.066.183-.148.246-.242.063-.096.114-.207.152-.332.038-.126.073-.266.104-.423h.09v2.639h-.09c-.042-.178-.104-.363-.188-.554-.082-.19-.17-.331-.262-.426-.08-.079-.178-.142-.292-.193-.114-.05-.246-.08-.399-.092l-.19-.014-.151-.002h-.35c-.01.078-.014.193-.014.342v1.008c0 .089 0 .172.003.254.003.08.003.149.003.204.005.18.015.35.028.508.012.16.041.278.087.356.045.079.154.133.326.166.172.036.36.052.563.052.086 0 .195-.004.33-.009.133-.004.275-.02.42-.043.164-.02.313-.065.45-.129.136-.064.268-.154.394-.271.127-.118.25-.262.368-.432.12-.17.242-.376.369-.615l.084.024M175.951 162.88v-.083c.11-.022.214-.058.308-.11.096-.05.177-.122.243-.217.022-.034.039-.082.05-.142.01-.063.02-.135.027-.218.006-.085.01-.171.012-.265.003-.092.004-.182.004-.27l.003-.32.007-.44c.001-.159.003-.322.003-.49v-2.42c0-.102-.003-.197-.01-.282-.007-.087-.016-.164-.03-.236-.013-.069-.033-.122-.06-.162-.061-.095-.137-.163-.228-.204-.09-.043-.194-.072-.31-.089v-.084h1.985v.084c-.093.017-.192.048-.298.092-.106.043-.19.133-.246.268-.04.095-.06.216-.063.36-.002.145-.005.282-.01.41 0 .141-.001.279-.004.415-.002.138-.002.275-.002.416v2.807c0 .162.002.318.007.47.004.15.023.255.059.317.053.095.137.167.251.216.116.052.22.083.313.094v.083M187.5 157.091c-.13.077-.23.197-.298.358-.04.085-.067.238-.08.464-.011.225-.021.466-.031.722-.012.239-.023.521-.03.847-.01.325-.015.674-.015 1.047v.533c0 .195.002.394.004.596.004.203.006.405.006.606v.541c0 .023-.008.041-.025.054-.012.015-.034.021-.062.021-.047 0-.1-.027-.157-.082-.49-.546-.937-1.046-1.34-1.503-.405-.455-.79-.89-1.157-1.306l-1.077-1.212c-.353-.396-.725-.805-1.117-1.226v3.52c0 .284.006.539.022.768.014.227.05.397.108.507.063.13.163.224.298.29.136.063.322.11.558.137v.083h-2.129v-.083c.14-.017.277-.053.416-.104.138-.054.247-.142.329-.264.08-.116.132-.288.155-.517.023-.227.041-.5.052-.817.011-.24.02-.522.026-.847.006-.326.01-.674.01-1.047v-1.018c0-.111-.004-.247-.01-.409-.017-.161-.057-.293-.12-.397-.065-.103-.14-.182-.227-.242-.085-.057-.18-.1-.28-.124-.102-.026-.199-.044-.29-.054v-.085h1.757l4.103 4.622v-2.835c0-.223-.002-.436-.007-.64-.007-.202-.033-.363-.08-.48-.056-.154-.158-.282-.307-.378-.147-.098-.36-.165-.637-.204v-.085h2.148v.085c-.213.027-.385.08-.515.158M195.054 162.88v-.083c.111-.022.214-.058.309-.11.096-.05.176-.122.243-.217.022-.034.038-.082.05-.142.01-.063.02-.135.026-.218.007-.085.012-.171.013-.265.003-.092.004-.182.004-.27l.003-.32.007-.44c.002-.159.002-.322.002-.49v-2.42c0-.102-.002-.197-.009-.282-.007-.087-.017-.164-.031-.236-.012-.069-.031-.122-.06-.162-.06-.095-.137-.163-.227-.204-.091-.043-.195-.072-.31-.089v-.084h1.985v.084c-.093.017-.192.048-.298.092-.106.043-.189.133-.246.268-.04.095-.061.216-.064.36-.001.145-.005.282-.008.41 0 .141-.002.279-.004.415-.004.138-.004.275-.004.416v2.807c0 .162.002.318.008.47.003.15.023.255.059.317.053.095.137.167.25.216.116.052.22.083.313.094v.083M206.042 158.484c-.041-.1-.093-.203-.15-.31-.059-.108-.117-.208-.179-.302-.06-.093-.12-.18-.179-.26-.057-.08-.108-.14-.15-.178-.111-.11-.233-.183-.36-.22-.131-.036-.297-.055-.498-.061-.099 0-.188-.001-.261-.004-.074-.002-.148-.005-.222-.005h-.524c0 .138-.002.327-.005.562-.002.238-.003.485-.003.745v3.232c0 .16.003.312.011.458.008.146.033.25.076.31.079.121.19.204.337.249.146.044.276.076.392.1v.08h-2.579v-.08c.138-.017.27-.045.397-.084.128-.039.25-.129.373-.272.027-.029.046-.074.06-.138.013-.062.024-.135.032-.214.008-.08.012-.167.016-.26l.003-.273c0-.078.001-.179.004-.306l.008-.422c.003-.154.004-.314.004-.478v-3.209h-.524c-.069 0-.141.003-.22.005-.075.003-.163.004-.264.004-.2.006-.367.03-.495.074-.13.045-.251.122-.362.232-.043.039-.091.096-.146.174-.056.076-.115.16-.177.252-.06.09-.118.188-.173.292-.056.106-.1.208-.13.307l-.072-.025.237-1.571c.122.028.235.05.337.066.104.017.254.027.449.034.2.005.382.01.54.011.159.005.312.006.46.006h1.508c.16 0 .313-.001.462-.006.147 0 .3-.004.46-.007.159-.002.338-.004.54-.004.174-.007.318-.021.432-.046.114-.025.231-.055.354-.094l.253 1.611M212.869 162.88v-.081c.016 0 .053-.006.112-.017.062-.01.124-.03.19-.057.065-.028.124-.066.173-.115.048-.05.075-.112.075-.189 0-.051-.016-.13-.044-.243-.028-.112-.07-.25-.121-.41-.053-.162-.113-.342-.182-.54-.067-.198-.141-.403-.22-.616h-2.09c-.078.21-.155.408-.226.596l-.222.571c-.109.296-.164.504-.164.625 0 .07.021.13.064.176.042.047.094.086.16.116.065.03.137.05.213.065l.216.038v.081h-1.673v-.09c.135-.016.251-.055.348-.116.098-.06.154-.1.17-.122.036-.039.096-.129.18-.272.084-.142.186-.353.307-.632.11-.258.233-.55.369-.88l.42-1.015c.144-.347.287-.698.427-1.052.143-.352.276-.684.402-.99l-.079-.18c.093-.044.178-.097.256-.156.075-.062.141-.125.2-.19.056-.066.106-.128.144-.19.04-.06.071-.107.09-.147h.065l.462 1.295c.147.408.288.8.42 1.18.135.376.265.742.39 1.096.126.354.252.703.377 1.047.058.172.11.312.16.424l.17.383c.011.022.033.06.07.115.036.054.085.11.146.168.058.058.135.108.223.15.09.046.194.07.316.076v.098h-2.294zm-1.03-4.98c-.032.071-.077.183-.138.339-.06.151-.135.338-.224.556-.088.22-.186.468-.294.745-.106.276-.223.576-.35.9h1.957c-.089-.246-.18-.493-.272-.741-.09-.246-.18-.482-.267-.711l-.236-.624c-.07-.189-.128-.343-.176-.464zM221.927 162.88h-4.753v-.083c.123-.022.246-.058.366-.11.121-.05.215-.119.285-.209.024-.033.045-.082.063-.147.017-.064.031-.138.041-.221.01-.085.017-.171.025-.265.008-.092.011-.182.011-.27 0-.08.002-.186.005-.32l.008-.44c.002-.159.003-.322.003-.49v-2.406c0-.099-.003-.193-.011-.279-.008-.087-.02-.164-.033-.23-.015-.067-.038-.12-.068-.16-.069-.096-.162-.167-.277-.219-.118-.049-.238-.082-.366-.099v-.084h2.36v.084c-.063.012-.14.028-.23.05-.087.021-.17.058-.25.109-.079.05-.147.121-.203.214-.058.09-.089.212-.095.364-.003.196-.007.374-.008.536l-.008.477c-.002.156-.004.319-.004.488v1.524c0 .145.002.294.004.449.002.153.003.324.003.516.005.178.01.347.018.51.008.161.033.282.077.36.02.027.06.055.12.084.06.028.131.051.215.071.083.02.174.037.274.05.097.013.196.02.295.02l.19-.004c.085-.003.181-.008.284-.017.103-.007.21-.02.32-.037.107-.016.204-.038.288-.067.196-.061.362-.142.491-.243.132-.1.243-.217.338-.348.093-.131.171-.273.237-.425.064-.155.124-.316.185-.484l.074.025M230.84 157.05c-.113.056-.22.128-.316.218-.097.088-.19.195-.276.319-.089.121-.185.26-.288.418-.068.106-.163.25-.284.431-.124.182-.248.37-.376.566l-.371.561c-.12.18-.214.318-.283.42v1.683c0 .162.006.319.015.473.007.154.034.262.08.323.086.123.197.204.333.243.136.039.268.07.392.092v.083h-2.629v-.083c.15-.016.28-.043.39-.079.11-.037.229-.124.354-.264.027-.028.05-.076.064-.143.014-.067.026-.142.035-.226.007-.083.014-.174.016-.268l.003-.276c.007-.156.012-.342.014-.557.003-.216.004-.476.004-.784l-.102-.159-.21-.331-.272-.44c-.1-.162-.198-.32-.296-.474-.095-.154-.186-.297-.272-.431-.086-.134-.156-.243-.213-.327l-.294-.444c-.087-.134-.177-.248-.269-.343-.09-.096-.18-.17-.268-.226-.089-.057-.19-.087-.304-.093v-.084h2.586v.084c-.086.006-.17.015-.256.026-.086.01-.166.03-.239.054-.074.025-.133.058-.179.1-.047.042-.067.1-.067.172 0 .072.04.183.122.331.083.148.17.298.26.448.064.1.137.223.222.365.086.143.18.293.282.452.103.16.205.323.31.49.107.168.204.328.295.478.074-.105.165-.242.274-.406l.328-.503c.112-.17.215-.334.317-.49.099-.156.172-.28.225-.37.028-.043.06-.096.094-.154.033-.059.066-.12.098-.184.031-.065.058-.13.08-.197.024-.068.035-.128.035-.184 0-.089-.023-.16-.069-.21-.045-.05-.103-.089-.173-.118-.074-.027-.151-.048-.236-.063l-.247-.037v-.084h1.971v.084c-.16.022-.297.062-.41.117M221.196 117.636L225.217 117.636 225.217 87.473 221.196 87.473z"/>
    </g>
</svg>
