<?xml version="1.0" encoding="utf-8"?>
<!-- Generator: Adobe Illustrator 25.0.1, SVG Export Plug-In . SVG Version: 6.00 Build 0)  -->
<svg version="1.1" id="Livello_1" xmlns="http://www.w3.org/2000/svg" xmlns:xlink="http://www.w3.org/1999/xlink" x="0px" y="0px"
	 viewBox="0 0 416 195.28" style="enable-background:new 0 0 416 195.28;" xml:space="preserve">
<style type="text/css">
	.st0{fill:#FFFFFF;}
</style>
<g>
	<path class="st0" d="M216.79,39.67c0.1,0.31,0.2,0.62,0.31,0.92c5.7,0.11,5.8-1.54,8.31-4.31c0.02-0.96,0.05-1.94-0.3-2.46V33.2
		h-0.92c-0.59,0.47,0.04,1.68-0.31,2.46c-0.34,0.78-1.39,1.68-1.85,2.46h-0.92V36.9C218.88,37.25,218.29,38.66,216.79,39.67"/>
	<path class="st0" d="M227.26,39.67c-0.53,0.78-0.27,1.55-0.92,2.16c0.2,0.53,0.06,0.3,0.31,0.62c0.05,0.08,5.31-3.59,7.08-4.31
		v-0.61C231.06,37.5,228.33,38.11,227.26,39.67"/>
	<path class="st0" d="M241.73,35.05h-1.23c-1.47-1.59-4.82-1.37-7.08-2.16c0.1-0.1,0.2-0.21,0.31-0.31
		c0.61-1.61,1.84-1.16,2.15-3.08c-0.7-0.54-1.53-1.56-1.85-2.46h1.23c0.67,0.87,2.32,1.48,2.77,2.46v2.46
		c0.32,0.81,2.9,2.36,3.69,2.77V35.05z M216.49,31.97c-0.02-0.5,0.18-4.1,0.92-4.92C218.18,28.8,219.12,31.49,216.49,31.97
		 M242.32,31.15c-3.38-4.3-7.22-7.23-15.67-5.03c0.29,0.98,0.53,1.08,0.62,2.46h-0.92c-0.98-1.66-3.07-6.62-5.24-6.77
		c-0.71,1.14-0.96,1.87-0.92,4c0.1,0.11,0.2,0.21,0.31,0.31h0.61c0.09-0.72,0.14-0.77,0.31-1.23c0.1,0.1,0.2,0.2,0.31,0.31
		c1.38,0.66,1.78,1.5,2.77,2.46v1.23h-1.23c-0.25-1.36-0.27-1.71-1.85-1.85c0.31,0.92,0.61,1.85,0.93,2.77h-0.93
		c0.13,1.26,0.57,1.51,0.31,2.15c-0.19,0.54-0.06,0.3-0.31,0.62c-2.16-2.27-3.38-6.02-2.46-10.47c1.04-1.53,2-2,4-1.54
		c2,0.46,2.46,4,2.46,4h1.85c0.71-0.7,1.34-0.88,2.77-0.92c0.19-0.54,0.06-0.3,0.31-0.61c-3.54-7.41-9.93-8.09-18.16-10.78
		c-1.8-0.59-3.54-1.83-5.54-2.15c-0.1,0.1-0.21,0.2-0.31,0.31c0.2,0.54,0.06,0.3,0.31,0.62c1.62,4.76,9.91,2.99,12.01,8.31h-0.61
		c-1.08-1.18-3.06-1.11-4.62-1.85c-2.7-1.28-12.89-5.81-17.55-2.77c-1.22,0.33-1.91,0.77-2.16,2.16c0.21,0,5.57,0.01,7.39,0.62
		c4.51,1.5,9.86,3.07,13.24,5.85h-0.61v0.31c-6.5-2.19-27.08-10-32.95-1.23c-0.47,0.58-0.55,1.11-0.61,2.16
		c2.7-0.16,5.28-1.27,7.7-1.85c5.32-1.28,18.37,1.17,21.86,2.46c-0.32,0.25-0.09,0.11-0.61,0.31c-2.23,1.33-9.49-0.61-12.63-0.62
		c-13.73-0.02-25.83,2.79-25.56,15.7c2.91-0.17,7.41-3.1,9.85-4.31c3.56-1.76,11.01-3,11.01-3s8.6-3.71,11.47-4.08v0.31h-0.31
		c-4.48,4.32-11.89,5.46-18.16,8c-1.94,0.79-3.39,0.39-5.23,1.23c-2.54,1.16-6.73,3.22-8.93,4.93c-0.8,0.62-1.13,2.04-1.85,2.77
		c-0.16,3.45-0.29,6.39,0.92,8.93h0.62c1.06-7.25,9.25-11.24,15.09-13.86c3.6-1.62,7.36-1.69,10.78-3.38
		c3.06-1.52,5.64-4.7,8.93-5.85v0.61c-3.66,2.43-6.49,6.03-10.77,8.01c-1.39,0.64-2.41,0.26-4,0.92c-6.5,2.71-14.07,5.68-17.24,11.7
		c-3.23,6.14,0.55,11.92,4.31,14.78c0.88,0.67,3.55,4.19,4.62,3.38c0.25-0.31,0.11-0.08,0.31-0.61c-3.27-3.48-2.54-13.31-0.31-17.24
		c3.8-6.73,13.55-10.43,21.24-13.55c3.06-1.24,5.93-4.15,9.24-4.93v0.62c-3.29,2.17-6.51,4.84-10.16,6.77
		c-1.48,0.79-2.72,0.5-4.31,1.23c-4.6,2.11-11.05,5.6-13.55,9.85c-3.17,5.38-1.88,17.89,2.77,21.24c2.94,2.12,9.42,3.13,13.54,3.69
		c-0.42-2.9-1.92-5.31-2.77-7.7c-0.71-2.01-1.39-3.98-1.8-5.81c-2.05-9.13,7.3-21.39,13.19-22.52v0.31h-0.3
		c-4.16,4.11-8.08,7.93-9.86,14.47c0,1.23-1.01,6.03,0,8.93c1.01,2.9,3.18,8.78,4.31,14.47c4.2,0.1,8.04,1.87,10.78,3.69
		c1.04,0.69,1.21,1.5,2.77,1.85c0.11-11.41-5.91-18.14-7.13-22.47c-1.23-4.33-1.54-4.24-1.54-5.78c-0.1-5.38,3.21-11.66,8.06-14.25
		v0.31c-1.83,1.41-2.81,3.41-3.69,5.85c-4.15,11.4,3.02,19.72,6.16,27.71c0.91,2.33,1.24,4.39,1.23,7.39c0,1.38-0.49,3.8-0.31,4.01
		c0.63,1.72,2.04,1.79,3.39,2.77c1.71,1.25,2.82,3.09,3.7,5.23c0.31-0.11,0.61-0.2,0.92-0.31c1.5-2.27,3.31-4.59,4.31-7.39
		c2.51-7.02-2.48-12.62-4.92-16.01c-3.58-4.97-7.1-9.26-9.55-15.39c-0.63-1.58-2.56-4.76-2.15-7.08c0.19-1.09,0.28-2.03,1.23-3.39
		c0.95-1.35,1.97-1.03,3.39-1.54v1.85c-0.66,0.52-0.95,0.87-0.62,1.54c0.82,4.57,7.7,6.16,7.7,6.16s2.11,0,3.08,0.62
		c2.03,1.29,3.38,3.37,6.46,3.69c1.13-2.14,1.87-4.7,2.46-7.39c-0.71-0.24-0.49-1.13-2.02-0.6c-0.25-0.88,0.85-3.2,0.16-2.9
		c-0.69,0.31-1.63,2.37-1.94,2.27c-1.61-0.5-3.29-1.31-3.9-3.09c-0.38-0.57-0.38-2.7-0.38-2.7s0.77-2.38,3.15-3.15
		c2.24-0.87,5.09,0.6,5.63,1.52c0.54,0.92,0.49,2.64,0.93,2.8c0.45,0.16,1.24-1.93,1.76-1.86c0.57-0.85,1.4-1.2,1.85-2.15
		c0.49-1.1-0.71-1.56-0.92-2.77c-0.11-0.58,0.31-1.52,0.31-2.46c0.46-0.16,0.52-0.21,1.23-0.31v0.62c0.43,0.71,0.09,1.68,0.31,2.15
		c0.36,0.25,0.52,0.24,1.23,0.31c0.74-1.72,1.5-2.38,1.54-4.93C246.17,34.12,243.87,33.13,242.32,31.15"/>
	<path class="st0" d="M229.72,18.42c1.54,1.82,1.89,2.62,2.54,5c0.39,0.27,2.84,0.51,3.61,0.54c0.19-0.53,0.28-0.97,0.31-1.85
		c-0.92-1.21-0.99-3.07-1.85-4.31c-1.65-2.38-10.68-6.47-14.16-7.08c0.1,0.62,0.2,1.23,0.3,1.85
		C223.05,14.26,227.84,16.19,229.72,18.42"/>
	<path class="st0" d="M218.1,51.91c0,0-0.46,6.31,10.47,19.16c3.23,4.16,5.62,10.54,5.62,10.54s4.16-9.47-1-14.47
		C228.03,62.14,218.1,51.91,218.1,51.91"/>
	<path class="st0" d="M406,135.83V121.4c-0.04-2.73-0.57-4.66-1.54-6.25c-1.76-2.73-4.84-4.36-8.62-4.36c-0.97,0-4.66,0-7.13,3.26
		h-0.09v-2.6h-4.27v24.38h4.58v-13.29c0-4.88,2.6-7.57,6.42-7.57c6.07,0,6.07,5.72,6.07,7.61v13.24H406z M374.05,123.56
		c0,4.62-3.65,8.71-8.58,8.71c-5.1,0-8.58-4.27-8.58-8.67c0-4.36,3.43-8.62,8.58-8.62C370.62,114.98,374.05,119.25,374.05,123.56
		 M378.63,123.56c0-6.95-5.76-12.76-13.16-12.76c-7.57,0-13.16,6.03-13.16,12.67c0,6.16,4.97,12.98,13.16,12.98
		C373.75,136.45,378.63,129.5,378.63,123.56 M346.6,103.27h-4.58v5.37h4.58V103.27z M346.6,111.46h-4.58v24.38h4.58V111.46z
		 M333.84,115.64h4v-4.18h-4v-8.18h-4.58v8.18h-3.3v4.18h3.3v20.2h4.58V115.64z M323.28,119.55c-0.92-3.61-5.06-8.76-11.97-8.76
		c-7.7,0-12.54,6.2-12.54,12.8c0,6.29,4.49,12.85,12.5,12.85c5.41,0,10.16-3.26,12.01-8.67h-5.1c-1.14,2.51-3.48,4.49-6.91,4.49
		c-5.24,0-7.92-4.44-7.92-8.67c0-3.7,2.11-8.62,8.01-8.62c4.36,0,6.12,3.04,6.86,4.58H323.28z M274.04,122.11
		c0.22-3.56,3.48-7.13,7.88-7.13c4.4,0,7.66,3.56,7.88,7.13H274.04z M294.24,125.63c0.04-0.31,0.13-1.54,0.13-2.33
		c-0.04-7.13-5.81-12.5-12.41-12.5c-6.86,0-12.5,5.5-12.5,12.8c0,6.91,5.5,12.85,12.41,12.85c3.78,0,9.37-1.98,11.7-8.27H289
		c-1.1,2.11-3.56,4.09-6.95,4.09c-3.08,0-6.86-1.94-8.01-6.64H294.24z M263.7,103.27h-4.58v32.56h4.58V103.27z M252.13,103.27h-4.58
		v32.56h4.58V103.27z M237.22,123.56c0,4.62-3.65,8.71-8.58,8.71c-5.1,0-8.58-4.27-8.58-8.67c0-4.36,3.43-8.62,8.58-8.62
		S237.22,119.25,237.22,123.56 M241.79,123.56c0-6.95-5.76-12.76-13.16-12.76c-7.57,0-13.16,6.03-13.16,12.67
		c0,6.16,4.97,12.98,13.16,12.98C236.91,136.45,241.79,129.5,241.79,123.56 M211.3,119.55c-0.92-3.61-5.06-8.76-11.97-8.76
		c-7.7,0-12.54,6.2-12.54,12.8c0,6.29,4.49,12.85,12.5,12.85c5.41,0,10.16-3.26,12.01-8.67h-5.1c-1.14,2.51-3.48,4.49-6.91,4.49
		c-5.24,0-7.92-4.44-7.92-8.67c0-3.7,2.11-8.62,8.01-8.62c4.36,0,6.12,3.04,6.86,4.58H211.3z M164.44,123.56
		c0,4.62-3.65,8.71-8.58,8.71c-5.1,0-8.58-4.27-8.58-8.67c0-4.36,3.43-8.62,8.58-8.62C161.01,114.98,164.44,119.25,164.44,123.56
		 M169.02,123.56c0-6.95-5.76-12.76-13.16-12.76c-7.57,0-13.16,6.03-13.16,12.67c0,6.16,4.97,12.98,13.16,12.98
		C164.13,136.45,169.02,129.5,169.02,123.56 M136.98,103.27h-4.58v5.37h4.58V103.27z M136.98,111.46h-4.58v24.38h4.58V111.46z
		 M120.88,123.69c0,3.12-2.55,8.58-8.54,8.58c-4.88,0-8.4-4.22-8.4-8.62c0-4.62,3.61-8.67,8.45-8.67
		C115.2,114.98,120.88,116.83,120.88,123.69 M125.46,111.46h-4.58v2.82c-1.63-1.85-4.8-3.48-8.4-3.48
		c-8.84,0-13.11,7.35-13.11,12.76c0,5.94,4.97,12.89,13.02,12.89c5.15,0,7.57-2.68,8.4-3.83h0.09c0,6.34-3.74,8.58-8.58,8.62
		c-4.36,0-6.25-2.55-6.95-3.52h-5.1c2.02,4.62,6.34,7.7,12.01,7.7c8.32,0,13.2-4.88,13.2-12.89V111.46z M89.99,135.83V122.5
		c0-3.48,1.23-5.32,2.68-6.12c1.1-0.57,2.6-0.88,3.3-0.88v-4.71c-1.14,0.04-4.27,0.13-6.2,2.86h-0.09v-2.2h-4.27v24.38H89.99z
		 M75.08,123.56c0,4.62-3.65,8.71-8.58,8.71c-5.1,0-8.58-4.27-8.58-8.67c0-4.36,3.43-8.62,8.58-8.62
		C71.65,114.98,75.08,119.25,75.08,123.56 M79.65,123.56c0-6.95-5.76-12.76-13.16-12.76c-7.57,0-13.16,6.03-13.16,12.67
		c0,6.16,4.97,12.98,13.16,12.98C74.77,136.45,79.65,129.5,79.65,123.56 M47.62,103.27h-4.58v5.37h4.58V103.27z M47.62,111.46h-4.58
		v24.38h4.58V111.46z M31.52,123.69c0,3.12-2.55,8.58-8.54,8.58c-4.88,0-8.4-4.22-8.4-8.62c0-4.62,3.61-8.67,8.45-8.67
		C25.84,114.98,31.52,116.83,31.52,123.69 M36.1,111.46h-4.58v2.82c-1.63-1.85-4.8-3.48-8.4-3.48c-8.84,0-13.11,7.35-13.11,12.76
		c0,5.94,4.97,12.89,13.02,12.89c5.15,0,7.57-2.68,8.4-3.83h0.09c0,6.34-3.74,8.58-8.58,8.62c-4.36,0-6.25-2.55-6.95-3.52h-5.1
		c2.02,4.62,6.34,7.7,12.01,7.7c8.32,0,13.2-4.88,13.2-12.89V111.46z"/>
	<path class="st0" d="M257.94,179.22c-0.11,0.06-0.22,0.13-0.31,0.22c-0.1,0.09-0.19,0.2-0.28,0.32c-0.09,0.12-0.18,0.27-0.28,0.43
		c-0.07,0.11-0.16,0.25-0.29,0.44c-0.12,0.18-0.25,0.38-0.37,0.57c-0.13,0.2-0.25,0.39-0.37,0.57c-0.12,0.18-0.21,0.32-0.28,0.43
		v1.71c0,0.16,0,0.32,0.01,0.48c0.01,0.16,0.04,0.26,0.08,0.33c0.08,0.12,0.2,0.21,0.33,0.25c0.14,0.04,0.27,0.07,0.39,0.09v0.08
		h-2.62v-0.08c0.15-0.02,0.28-0.04,0.39-0.08c0.11-0.04,0.23-0.13,0.35-0.27c0.03-0.03,0.05-0.08,0.06-0.14
		c0.01-0.07,0.03-0.15,0.03-0.23c0.01-0.09,0.01-0.18,0.02-0.27c0-0.1,0-0.19,0-0.28c0.01-0.16,0.01-0.35,0.01-0.57
		c0-0.22,0-0.48,0-0.79c-0.01-0.02-0.04-0.07-0.1-0.16c-0.06-0.09-0.13-0.2-0.21-0.34s-0.17-0.28-0.27-0.45
		c-0.1-0.16-0.2-0.32-0.29-0.48c-0.1-0.16-0.19-0.3-0.27-0.44c-0.08-0.14-0.16-0.25-0.21-0.33c-0.11-0.16-0.21-0.31-0.29-0.45
		c-0.09-0.14-0.18-0.25-0.27-0.35c-0.09-0.1-0.18-0.17-0.27-0.23c-0.09-0.06-0.19-0.09-0.3-0.09v-0.09h2.58v0.09
		c-0.09,0.01-0.17,0.01-0.26,0.02c-0.09,0.01-0.16,0.03-0.24,0.06c-0.07,0.03-0.13,0.06-0.18,0.1c-0.05,0.04-0.07,0.1-0.07,0.17
		s0.04,0.19,0.12,0.34c0.08,0.15,0.17,0.3,0.26,0.46c0.06,0.1,0.14,0.23,0.22,0.37c0.08,0.15,0.18,0.3,0.28,0.46
		c0.1,0.16,0.2,0.33,0.31,0.5c0.11,0.17,0.2,0.33,0.29,0.49c0.07-0.11,0.17-0.24,0.27-0.41c0.11-0.17,0.22-0.34,0.33-0.51
		c0.11-0.17,0.21-0.34,0.31-0.5c0.1-0.16,0.17-0.28,0.23-0.37c0.03-0.05,0.06-0.1,0.09-0.16c0.03-0.06,0.07-0.12,0.1-0.19
		c0.03-0.07,0.06-0.13,0.08-0.2c0.02-0.07,0.03-0.13,0.03-0.19c0-0.09-0.02-0.16-0.07-0.21c-0.05-0.05-0.1-0.09-0.17-0.12
		c-0.07-0.03-0.15-0.05-0.23-0.06c-0.08-0.01-0.17-0.03-0.25-0.04v-0.09h1.96v0.09C258.19,179.13,258.05,179.17,257.94,179.22
		 M249.64,185.14h-5.46v-0.08c0.14-0.02,0.28-0.06,0.42-0.11c0.14-0.05,0.25-0.12,0.33-0.21c0.03-0.03,0.05-0.08,0.07-0.15
		c0.02-0.07,0.04-0.14,0.05-0.23c0.01-0.08,0.02-0.17,0.03-0.27c0.01-0.09,0.01-0.18,0.01-0.28c0-0.08,0-0.19,0-0.32
		s0.01-0.29,0.01-0.45c0-0.16,0-0.33,0-0.5v-0.49v-1.65v-0.3c0-0.1,0-0.2-0.01-0.28c-0.01-0.09-0.02-0.17-0.04-0.23
		c-0.02-0.07-0.04-0.12-0.08-0.16c-0.08-0.1-0.18-0.17-0.32-0.22c-0.13-0.05-0.27-0.08-0.42-0.1v-0.09h2.71v0.09
		c-0.07,0.01-0.16,0.03-0.26,0.05c-0.1,0.02-0.2,0.06-0.29,0.11c-0.09,0.05-0.17,0.12-0.23,0.22c-0.07,0.09-0.1,0.22-0.11,0.37
		c-0.01,0.2-0.01,0.38-0.01,0.54c0,0.16-0.01,0.33-0.01,0.49c0,0.16-0.01,0.32-0.01,0.49v0.57v0.53v0.45c0,0.15,0,0.3,0.01,0.46
		c0,0.16,0,0.33,0,0.52c0.01,0.18,0.01,0.35,0.02,0.52c0.01,0.16,0.04,0.29,0.09,0.37c0.02,0.03,0.07,0.06,0.14,0.09
		s0.15,0.05,0.25,0.07c0.1,0.02,0.2,0.04,0.31,0.05c0.11,0.01,0.23,0.02,0.34,0.02c0.05,0,0.12,0,0.22,0c0.1,0,0.21-0.01,0.33-0.02
		c0.12-0.01,0.24-0.02,0.37-0.04c0.12-0.02,0.23-0.04,0.33-0.07c0.23-0.06,0.42-0.15,0.57-0.25c0.15-0.1,0.28-0.22,0.39-0.35
		c0.11-0.13,0.2-0.28,0.27-0.43c0.07-0.16,0.15-0.32,0.21-0.49l0.08,0.03L249.64,185.14z M238.13,180.47
		c0.08,0.2,0.16,0.41,0.26,0.65c0.09,0.24,0.19,0.48,0.29,0.74c0.1,0.26,0.2,0.51,0.29,0.76h-2.12c0.14-0.33,0.26-0.64,0.38-0.93
		c0.12-0.29,0.22-0.54,0.32-0.77c0.1-0.23,0.18-0.42,0.24-0.58c0.07-0.16,0.11-0.27,0.15-0.35
		C237.99,180.11,238.05,180.27,238.13,180.47 M241.53,185.14v-0.1c-0.13-0.01-0.24-0.03-0.34-0.08c-0.1-0.05-0.18-0.1-0.24-0.16
		c-0.07-0.06-0.12-0.12-0.16-0.17c-0.04-0.06-0.07-0.1-0.08-0.12c-0.07-0.15-0.13-0.28-0.18-0.39c-0.05-0.12-0.11-0.26-0.17-0.44
		c-0.14-0.36-0.27-0.72-0.41-1.08c-0.14-0.37-0.28-0.74-0.42-1.13c-0.15-0.39-0.3-0.8-0.46-1.22s-0.33-0.87-0.5-1.34h-0.07
		c-0.02,0.04-0.06,0.09-0.1,0.15c-0.04,0.06-0.1,0.13-0.16,0.2c-0.06,0.07-0.13,0.13-0.22,0.2c-0.08,0.06-0.18,0.12-0.28,0.16
		l0.08,0.19c-0.14,0.32-0.28,0.66-0.43,1.02c-0.15,0.37-0.31,0.73-0.46,1.09c-0.16,0.36-0.31,0.71-0.45,1.05
		c-0.15,0.34-0.28,0.64-0.4,0.91c-0.13,0.29-0.24,0.51-0.33,0.65c-0.09,0.15-0.16,0.24-0.2,0.28c-0.02,0.02-0.08,0.07-0.18,0.13
		c-0.11,0.06-0.23,0.1-0.38,0.12v0.09h1.81v-0.08c-0.07-0.01-0.15-0.02-0.23-0.04c-0.08-0.01-0.16-0.04-0.23-0.07
		c-0.07-0.03-0.13-0.07-0.17-0.12c-0.05-0.05-0.07-0.11-0.07-0.18c0-0.12,0.06-0.34,0.18-0.65c0.08-0.2,0.16-0.4,0.24-0.59
		c0.08-0.19,0.16-0.4,0.25-0.62h2.26c0.09,0.22,0.17,0.43,0.24,0.64c0.07,0.2,0.14,0.39,0.2,0.56c0.06,0.17,0.1,0.31,0.13,0.43
		c0.03,0.12,0.05,0.2,0.05,0.25c0,0.08-0.03,0.15-0.08,0.2c-0.05,0.05-0.12,0.09-0.19,0.12c-0.07,0.03-0.14,0.05-0.2,0.06
		c-0.07,0.01-0.11,0.02-0.12,0.02v0.08H241.53z M232.68,180.62c-0.04-0.1-0.1-0.21-0.16-0.32c-0.06-0.11-0.13-0.21-0.19-0.31
		c-0.07-0.1-0.13-0.19-0.19-0.27c-0.06-0.08-0.12-0.14-0.16-0.18c-0.12-0.11-0.25-0.19-0.39-0.23c-0.14-0.04-0.32-0.06-0.53-0.06
		c-0.11,0-0.2,0-0.28,0c-0.08,0-0.16,0-0.24,0h-0.25h-0.32c0,0.14,0,0.33,0,0.58c0,0.24,0,0.5,0,0.76v0.79v0.65v1.89
		c0,0.16,0,0.32,0.01,0.47c0.01,0.15,0.04,0.26,0.08,0.32c0.08,0.12,0.21,0.21,0.36,0.25c0.15,0.04,0.3,0.08,0.42,0.1v0.08h-2.76
		v-0.08c0.15-0.02,0.29-0.04,0.42-0.09c0.14-0.04,0.27-0.13,0.4-0.28c0.03-0.03,0.05-0.07,0.06-0.14s0.03-0.14,0.03-0.22
		c0.01-0.08,0.01-0.17,0.02-0.27c0-0.1,0-0.19,0-0.28c0-0.08,0-0.18,0.01-0.31c0-0.13,0.01-0.27,0.01-0.43c0-0.16,0-0.32,0-0.49
		v-0.48v-2.81h-0.31h-0.25c-0.07,0-0.15,0-0.23,0c-0.08,0-0.18,0-0.29,0c-0.21,0.01-0.39,0.03-0.53,0.08
		c-0.14,0.04-0.27,0.12-0.39,0.24c-0.05,0.04-0.1,0.1-0.16,0.18c-0.06,0.08-0.12,0.17-0.19,0.26c-0.07,0.09-0.13,0.19-0.19,0.3
		c-0.06,0.11-0.11,0.21-0.14,0.32l-0.08-0.03l0.26-1.62c0.13,0.03,0.25,0.05,0.36,0.07c0.11,0.02,0.27,0.03,0.48,0.03
		c0.22,0.01,0.41,0.01,0.58,0.01c0.17,0,0.33,0,0.49,0h0.49h0.57h0.56c0.17,0,0.33,0,0.49,0c0.16,0,0.32-0.01,0.49-0.01
		c0.17,0,0.36,0,0.58,0c0.19-0.01,0.34-0.02,0.46-0.05c0.12-0.03,0.25-0.06,0.38-0.1l0.27,1.66L232.68,180.62z M220.74,185.14v-0.08
		c0.14-0.02,0.27-0.06,0.39-0.11c0.12-0.05,0.23-0.12,0.31-0.22c0.03-0.03,0.05-0.08,0.06-0.14c0.01-0.06,0.02-0.14,0.03-0.22
		c0.01-0.08,0.01-0.17,0.02-0.27c0-0.09,0-0.18,0-0.28c0-0.08,0-0.19,0-0.32c0-0.14,0.01-0.29,0.01-0.45c0-0.16,0-0.33,0-0.5v-0.49
		v-1.66v-0.31c0-0.1,0-0.2-0.01-0.29c-0.01-0.09-0.02-0.17-0.04-0.24s-0.04-0.13-0.08-0.17c-0.08-0.1-0.18-0.17-0.29-0.21
		c-0.12-0.04-0.25-0.07-0.39-0.09v-0.09h2.54v0.09c-0.12,0.02-0.25,0.05-0.38,0.09c-0.14,0.04-0.24,0.14-0.31,0.27
		c-0.05,0.1-0.08,0.22-0.08,0.37c0,0.15-0.01,0.29-0.01,0.42c0,0.14,0,0.28,0,0.42c0,0.14,0,0.28,0,0.42v0.44v0.49v1.92
		c0,0.16,0,0.32,0.01,0.48c0.01,0.15,0.03,0.26,0.08,0.32c0.07,0.1,0.17,0.17,0.32,0.22c0.15,0.05,0.28,0.08,0.4,0.09v0.08H220.74z
		 M212.54,179.27c-0.13,0.08-0.23,0.2-0.29,0.37c-0.04,0.09-0.07,0.24-0.08,0.47c-0.01,0.23-0.02,0.47-0.03,0.74
		c-0.01,0.24-0.02,0.53-0.03,0.86c-0.01,0.33-0.01,0.69-0.01,1.07v0.54c0,0.2,0,0.4,0,0.61c0,0.21,0.01,0.41,0.01,0.62v0.55
		c0,0.02-0.01,0.04-0.02,0.06c-0.01,0.01-0.04,0.02-0.06,0.02c-0.05,0-0.1-0.03-0.15-0.08c-0.48-0.56-0.92-1.07-1.32-1.53
		c-0.4-0.46-0.77-0.91-1.13-1.33c-0.36-0.42-0.71-0.83-1.06-1.24c-0.35-0.4-0.71-0.82-1.1-1.25v3.59c0,0.29,0.01,0.55,0.02,0.78
		c0.01,0.23,0.05,0.4,0.11,0.52c0.06,0.13,0.16,0.23,0.29,0.29s0.32,0.11,0.55,0.14v0.08h-2.09v-0.08c0.14-0.02,0.27-0.05,0.41-0.11
		c0.14-0.05,0.24-0.14,0.32-0.27c0.08-0.12,0.13-0.29,0.15-0.53c0.02-0.23,0.04-0.51,0.05-0.83c0.01-0.24,0.02-0.53,0.02-0.86
		c0.01-0.33,0.01-0.69,0.01-1.07v-0.41v-0.32v-0.32c0-0.11,0-0.25-0.01-0.42c-0.02-0.16-0.06-0.3-0.12-0.4
		c-0.06-0.11-0.14-0.19-0.22-0.25c-0.09-0.06-0.18-0.1-0.28-0.13c-0.1-0.02-0.19-0.04-0.29-0.05v-0.09h1.73l4.03,4.71v-2.89
		c0-0.23,0-0.44-0.01-0.65c-0.01-0.21-0.03-0.37-0.08-0.49c-0.06-0.16-0.16-0.29-0.3-0.39c-0.15-0.1-0.35-0.17-0.62-0.21v-0.09h2.11
		v0.09C212.84,179.13,212.67,179.19,212.54,179.27 M200.22,185.14v-0.08c0.14-0.02,0.27-0.06,0.39-0.11
		c0.12-0.05,0.23-0.12,0.31-0.22c0.03-0.03,0.05-0.08,0.06-0.14c0.01-0.06,0.02-0.14,0.03-0.22c0.01-0.08,0.01-0.17,0.02-0.27
		c0-0.09,0-0.18,0-0.28c0-0.08,0-0.19,0-0.32c0-0.14,0.01-0.29,0.01-0.45c0-0.16,0-0.33,0-0.5v-0.49v-1.66v-0.31
		c0-0.1,0-0.2-0.01-0.29c-0.01-0.09-0.02-0.17-0.04-0.24s-0.04-0.13-0.08-0.17c-0.08-0.1-0.18-0.17-0.29-0.21
		c-0.12-0.04-0.25-0.07-0.4-0.09v-0.09h2.54v0.09c-0.12,0.02-0.25,0.05-0.38,0.09c-0.14,0.04-0.24,0.14-0.31,0.27
		c-0.05,0.1-0.08,0.22-0.08,0.37c0,0.15-0.01,0.29-0.01,0.42c0,0.14,0,0.28,0,0.42c0,0.14,0,0.28,0,0.42v0.44v0.49v1.92
		c0,0.16,0,0.32,0.01,0.48c0.01,0.15,0.03,0.26,0.08,0.32c0.07,0.1,0.18,0.17,0.32,0.22c0.15,0.05,0.28,0.08,0.4,0.09v0.08H200.22z
		 M192.29,185.14h-5.2v-0.08c0.14-0.02,0.27-0.06,0.39-0.11c0.12-0.05,0.22-0.12,0.3-0.21c0.03-0.03,0.05-0.08,0.07-0.15
		s0.03-0.14,0.05-0.23c0.01-0.08,0.02-0.17,0.03-0.27c0.01-0.09,0.01-0.18,0.01-0.28c0-0.08,0-0.19,0-0.32
		c0-0.14,0.01-0.29,0.01-0.45c0-0.16,0-0.33,0-0.5v-0.49v-1.66c0-0.1,0-0.21,0-0.31c0-0.11-0.01-0.21-0.02-0.31
		c-0.01-0.1-0.02-0.18-0.04-0.26c-0.02-0.08-0.05-0.13-0.08-0.17c-0.08-0.09-0.17-0.15-0.27-0.18c-0.1-0.02-0.22-0.05-0.37-0.07
		v-0.09h4.69l0.58,1.4l-0.09,0.04c-0.46-0.57-0.89-0.96-1.29-1.16c-0.1-0.04-0.27-0.08-0.54-0.12c-0.26-0.03-0.58-0.05-0.95-0.05
		c-0.12,0-0.24,0-0.37,0.01c-0.13,0.01-0.22,0.02-0.28,0.03c-0.01,0.09-0.02,0.28-0.03,0.56c-0.01,0.28-0.01,0.61-0.01,0.99v0.54
		c0,0.15,0,0.27,0.01,0.36c0,0.09,0,0.17,0,0.22v0.09h0.17c0.09,0,0.18,0,0.29-0.01c0.11-0.01,0.22-0.01,0.33-0.02
		c0.11-0.01,0.2-0.02,0.28-0.04c0.17-0.04,0.31-0.09,0.43-0.16c0.11-0.07,0.2-0.15,0.28-0.25c0.07-0.1,0.13-0.21,0.17-0.34
		c0.04-0.13,0.08-0.27,0.11-0.43h0.1v2.68h-0.1c-0.05-0.18-0.11-0.37-0.21-0.56c-0.09-0.19-0.19-0.34-0.29-0.43
		c-0.09-0.08-0.2-0.14-0.33-0.2c-0.13-0.05-0.28-0.08-0.45-0.09c-0.08-0.01-0.16-0.01-0.21-0.01c-0.06,0-0.11,0-0.17,0h-0.17h-0.22
		c-0.01,0.08-0.02,0.2-0.02,0.35v0.48v0.26v0.29c0,0.09,0,0.18,0.01,0.26c0,0.08,0,0.15,0,0.21c0.01,0.18,0.01,0.35,0.03,0.51
		c0.01,0.16,0.05,0.28,0.1,0.36c0.05,0.08,0.17,0.14,0.37,0.17c0.19,0.03,0.4,0.05,0.63,0.05c0.1,0,0.22,0,0.37-0.01
		c0.15-0.01,0.31-0.02,0.47-0.04c0.18-0.02,0.35-0.07,0.5-0.13c0.15-0.07,0.3-0.16,0.44-0.28c0.14-0.12,0.28-0.26,0.41-0.44
		c0.13-0.17,0.27-0.38,0.41-0.62l0.09,0.02L192.29,185.14z M182.65,181.05c-0.1-0.31-0.24-0.59-0.42-0.85
		c-0.18-0.25-0.4-0.47-0.65-0.64c-0.25-0.18-0.52-0.29-0.82-0.34c-0.11-0.02-0.24-0.04-0.37-0.06c-0.14-0.01-0.3-0.02-0.5-0.02
		c-0.07,0-0.14,0-0.22,0.01c-0.08,0-0.16,0.01-0.23,0.02c-0.08,0.01-0.15,0.01-0.21,0.02c-0.07,0.01-0.12,0.01-0.16,0.03
		c-0.03,0.28-0.05,0.66-0.05,1.15c-0.01,0.49-0.01,1.07-0.01,1.74v0.99c0,0.29,0,0.54,0.01,0.72c0,0.08,0,0.17,0.01,0.26
		c0.01,0.09,0.02,0.18,0.03,0.27c0.01,0.09,0.03,0.17,0.06,0.24c0.03,0.07,0.06,0.12,0.09,0.16c0.11,0.11,0.26,0.19,0.43,0.22
		c0.17,0.03,0.34,0.05,0.49,0.05c0.14,0,0.29-0.01,0.44-0.02c0.15-0.01,0.29-0.04,0.42-0.08c0.61-0.18,1.07-0.52,1.37-1.02
		c0.3-0.51,0.46-1.13,0.46-1.87C182.8,181.68,182.75,181.36,182.65,181.05 M183.69,183.12c-0.1,0.32-0.24,0.6-0.42,0.83
		c-0.18,0.23-0.38,0.42-0.61,0.58c-0.23,0.15-0.48,0.28-0.74,0.37c-0.26,0.09-0.53,0.15-0.81,0.19c-0.28,0.04-0.55,0.05-0.81,0.05
		h-3.1v-0.08c0.14-0.02,0.28-0.05,0.41-0.11c0.13-0.06,0.23-0.12,0.3-0.21c0.03-0.03,0.05-0.08,0.06-0.14
		c0.01-0.07,0.03-0.14,0.04-0.23c0.01-0.09,0.02-0.18,0.02-0.27c0.01-0.1,0.01-0.19,0.01-0.28c0-0.08,0-0.19,0-0.32
		s0.01-0.29,0.01-0.45c0-0.16,0-0.33,0-0.5v-0.49v-1.66v-0.31c0-0.1,0-0.2-0.01-0.29c-0.01-0.09-0.02-0.17-0.04-0.24
		s-0.04-0.13-0.08-0.17c-0.08-0.1-0.19-0.17-0.31-0.21c-0.12-0.04-0.25-0.07-0.4-0.08v-0.09c0.24,0,0.58,0,1.03,0
		c0.45,0,0.99,0,1.62,0h0.54c0.19,0,0.37,0.01,0.56,0.02c0.19,0.02,0.37,0.04,0.56,0.09c0.19,0.04,0.37,0.1,0.55,0.18
		c0.24,0.1,0.46,0.23,0.67,0.39c0.21,0.16,0.39,0.35,0.55,0.57c0.16,0.22,0.28,0.47,0.37,0.76c0.09,0.29,0.14,0.61,0.14,0.98
		C183.84,182.42,183.79,182.79,183.69,183.12 M171.09,180.47c0.08,0.2,0.16,0.41,0.26,0.65c0.09,0.24,0.19,0.48,0.29,0.74
		c0.1,0.26,0.2,0.51,0.29,0.76h-2.12c0.14-0.33,0.26-0.64,0.38-0.93c0.12-0.29,0.22-0.54,0.32-0.77c0.1-0.23,0.18-0.42,0.24-0.58
		c0.07-0.16,0.11-0.27,0.15-0.35C170.95,180.11,171.01,180.27,171.09,180.47 M174.49,185.14v-0.1c-0.13-0.01-0.24-0.03-0.34-0.08
		c-0.1-0.05-0.18-0.1-0.24-0.16c-0.06-0.06-0.12-0.12-0.16-0.17c-0.04-0.06-0.07-0.1-0.08-0.12c-0.07-0.15-0.13-0.28-0.18-0.39
		c-0.05-0.12-0.11-0.26-0.17-0.44c-0.14-0.36-0.27-0.72-0.41-1.08c-0.14-0.37-0.28-0.74-0.42-1.13c-0.15-0.39-0.3-0.8-0.46-1.22
		s-0.33-0.87-0.5-1.34h-0.07c-0.02,0.04-0.05,0.09-0.1,0.15c-0.04,0.06-0.1,0.13-0.16,0.2c-0.06,0.07-0.13,0.13-0.22,0.2
		s-0.18,0.12-0.28,0.16l0.08,0.19c-0.14,0.32-0.28,0.66-0.43,1.02c-0.15,0.37-0.31,0.73-0.46,1.09c-0.16,0.36-0.31,0.71-0.45,1.05
		c-0.15,0.34-0.28,0.64-0.4,0.91c-0.13,0.29-0.24,0.51-0.33,0.65c-0.09,0.15-0.16,0.24-0.2,0.28c-0.02,0.02-0.08,0.07-0.18,0.13
		c-0.11,0.06-0.23,0.1-0.38,0.12v0.09h1.81v-0.08c-0.07-0.01-0.15-0.02-0.23-0.04c-0.08-0.01-0.16-0.04-0.23-0.07
		c-0.07-0.03-0.13-0.07-0.17-0.12c-0.05-0.05-0.07-0.11-0.07-0.18c0-0.12,0.06-0.34,0.18-0.65c0.08-0.2,0.16-0.4,0.24-0.59
		c0.08-0.19,0.16-0.4,0.25-0.62H172c0.08,0.22,0.17,0.43,0.24,0.64c0.07,0.2,0.14,0.39,0.2,0.56c0.06,0.17,0.1,0.31,0.13,0.43
		c0.03,0.12,0.05,0.2,0.05,0.25c0,0.08-0.03,0.15-0.08,0.2c-0.05,0.05-0.12,0.09-0.19,0.12c-0.07,0.03-0.14,0.05-0.2,0.06
		c-0.07,0.01-0.11,0.02-0.12,0.02v0.08H174.49z M162.42,185.14v-0.09c0.24-0.01,0.45-0.06,0.61-0.15c0.16-0.09,0.27-0.19,0.33-0.31
		c0.03-0.07,0.06-0.17,0.08-0.28c0.02-0.11,0.03-0.22,0.03-0.34c0.01-0.37,0.02-0.73,0.02-1.07v-1.05v-2.41
		c-0.19,0.42-0.36,0.81-0.51,1.16c-0.16,0.35-0.31,0.69-0.46,1.03c-0.15,0.33-0.31,0.68-0.46,1.02c-0.16,0.35-0.33,0.73-0.51,1.15
		c-0.03,0.06-0.07,0.15-0.12,0.27c-0.05,0.12-0.1,0.25-0.15,0.37c-0.05,0.13-0.1,0.24-0.15,0.35c-0.04,0.11-0.07,0.18-0.08,0.21
		h-0.05c-0.18-0.42-0.36-0.84-0.54-1.25c-0.18-0.41-0.35-0.81-0.52-1.19c-0.17-0.38-0.33-0.74-0.48-1.07
		c-0.15-0.33-0.28-0.63-0.4-0.89c-0.12-0.26-0.22-0.48-0.29-0.65c-0.08-0.18-0.13-0.29-0.16-0.36c0,0.38,0,0.71,0,0.99
		c0,0.29-0.01,0.57-0.01,0.85c0,0.28,0,0.58,0,0.89v1.09c0,0.27,0.01,0.5,0.02,0.69c0.02,0.2,0.06,0.36,0.13,0.49
		c0.07,0.13,0.17,0.24,0.31,0.31c0.14,0.08,0.33,0.13,0.57,0.17v0.08h-2.22v-0.08c0.2-0.04,0.36-0.1,0.48-0.17
		c0.12-0.08,0.22-0.18,0.3-0.32c0.07-0.14,0.13-0.31,0.16-0.51c0.03-0.2,0.05-0.45,0.06-0.73c0.01-0.24,0.02-0.53,0.03-0.86
		c0.01-0.33,0.01-0.69,0.01-1.07v-0.42v-0.32v-0.33c0-0.11,0-0.25-0.01-0.42c-0.01-0.16-0.04-0.29-0.1-0.39
		c-0.06-0.1-0.14-0.18-0.22-0.23c-0.08-0.06-0.18-0.1-0.27-0.12c-0.1-0.02-0.18-0.04-0.25-0.05v-0.09h1.81l2.03,4.62
		c0.25-0.54,0.49-1.07,0.73-1.61c0.24-0.53,0.45-1.01,0.64-1.45c0.19-0.43,0.35-0.79,0.47-1.07c0.12-0.29,0.19-0.45,0.21-0.5h1.81
		v0.09c-0.23,0.01-0.41,0.05-0.53,0.14c-0.12,0.09-0.2,0.2-0.25,0.32c-0.03,0.1-0.06,0.25-0.07,0.45c-0.01,0.2-0.02,0.4-0.02,0.6
		c-0.01,0.27-0.01,0.54-0.01,0.79v0.77v0.92c0,0.3,0,0.62,0.01,0.95c0,0.11,0.01,0.22,0.02,0.33c0.01,0.11,0.04,0.2,0.07,0.26
		c0.01,0.01,0.03,0.04,0.06,0.08c0.04,0.04,0.09,0.09,0.16,0.14c0.07,0.05,0.15,0.09,0.26,0.13c0.1,0.04,0.22,0.06,0.36,0.06v0.08
		H162.42z"/>
	<path class="st0" d="M315.32,168.14h-7.96v-0.13c0.22-0.04,0.42-0.09,0.6-0.17c0.19-0.08,0.34-0.19,0.46-0.32
		c0.04-0.05,0.08-0.13,0.1-0.23c0.03-0.1,0.05-0.21,0.07-0.34c0.02-0.13,0.04-0.27,0.05-0.41c0.01-0.14,0.01-0.28,0.01-0.42
		c0-0.12,0-0.29,0.01-0.49c0-0.21,0.01-0.44,0.01-0.68c0-0.25,0.01-0.5,0.01-0.76v-0.75v-2.54c0-0.16,0-0.32-0.01-0.48
		c0-0.17-0.01-0.32-0.03-0.47c-0.01-0.15-0.03-0.28-0.07-0.4c-0.03-0.12-0.07-0.2-0.12-0.25c-0.13-0.14-0.27-0.23-0.42-0.27
		c-0.15-0.04-0.34-0.07-0.57-0.11v-0.13h7.18l0.88,2.14l-0.13,0.07c-0.7-0.88-1.36-1.46-1.98-1.77c-0.15-0.07-0.42-0.13-0.82-0.18
		c-0.4-0.05-0.88-0.08-1.46-0.08c-0.18,0-0.37,0.01-0.57,0.02s-0.34,0.03-0.42,0.04c-0.02,0.14-0.03,0.43-0.05,0.86
		s-0.02,0.94-0.02,1.51v0.83c0,0.23,0,0.41,0.01,0.55c0,0.14,0.01,0.25,0.01,0.33v0.14h0.26c0.13,0,0.28,0,0.45-0.01
		c0.17-0.01,0.34-0.02,0.51-0.03s0.31-0.03,0.42-0.06c0.26-0.06,0.48-0.14,0.65-0.25c0.17-0.1,0.31-0.23,0.42-0.38
		c0.11-0.15,0.2-0.32,0.26-0.51c0.07-0.19,0.12-0.41,0.18-0.66h0.16v4.1h-0.16c-0.07-0.28-0.18-0.56-0.32-0.86s-0.29-0.52-0.45-0.66
		c-0.14-0.12-0.31-0.22-0.5-0.3c-0.2-0.08-0.42-0.13-0.68-0.14c-0.13-0.01-0.24-0.01-0.33-0.02c-0.09,0-0.17-0.01-0.26-0.01h-0.26
		h-0.34c-0.02,0.12-0.03,0.3-0.03,0.53v0.73v0.39v0.44c0,0.14,0,0.27,0.01,0.4c0,0.13,0.01,0.23,0.01,0.32
		c0.01,0.28,0.02,0.54,0.04,0.79c0.02,0.25,0.07,0.43,0.15,0.55s0.26,0.21,0.56,0.26c0.29,0.05,0.62,0.08,0.96,0.08
		c0.15,0,0.33,0,0.57-0.01c0.23-0.01,0.47-0.03,0.72-0.07c0.28-0.04,0.53-0.1,0.77-0.2c0.23-0.1,0.46-0.24,0.68-0.42
		c0.22-0.18,0.43-0.4,0.63-0.67c0.2-0.26,0.41-0.58,0.63-0.96l0.14,0.04L315.32,168.14z M302.01,161.8
		c-0.11-0.42-0.28-0.81-0.51-1.17c-0.23-0.36-0.49-0.68-0.8-0.95c-0.31-0.27-0.65-0.48-1.04-0.64c-0.39-0.16-0.8-0.23-1.23-0.23
		c-0.6,0-1.13,0.13-1.6,0.4c-0.47,0.27-0.86,0.62-1.18,1.07c-0.32,0.44-0.56,0.94-0.73,1.5c-0.17,0.56-0.25,1.13-0.25,1.72
		c0,0.62,0.09,1.21,0.27,1.76c0.18,0.55,0.43,1.02,0.76,1.42c0.33,0.4,0.73,0.72,1.2,0.96c0.47,0.23,0.99,0.35,1.56,0.35
		c0.45,0,0.87-0.08,1.27-0.25c0.39-0.16,0.75-0.38,1.05-0.65c0.31-0.27,0.57-0.58,0.78-0.93c0.21-0.35,0.36-0.71,0.44-1.09h0.16
		l-0.04,2.86h-0.16c-0.1-0.15-0.21-0.28-0.33-0.4c-0.11-0.12-0.19-0.18-0.23-0.18c-0.02,0-0.1,0.05-0.23,0.14
		c-0.14,0.09-0.34,0.19-0.6,0.3c-0.26,0.11-0.58,0.2-0.95,0.29c-0.37,0.08-0.8,0.12-1.29,0.12c-0.81,0-1.53-0.11-2.18-0.34
		c-0.65-0.23-1.2-0.55-1.66-0.98c-0.45-0.42-0.8-0.92-1.05-1.51c-0.24-0.59-0.36-1.23-0.36-1.93c0-0.16,0.01-0.33,0.03-0.53
		c0.02-0.2,0.06-0.41,0.12-0.64c0.06-0.23,0.13-0.46,0.23-0.71c0.1-0.25,0.23-0.5,0.38-0.75c0.18-0.3,0.41-0.58,0.68-0.85
		c0.27-0.27,0.59-0.51,0.95-0.71c0.36-0.2,0.77-0.37,1.24-0.49c0.46-0.12,0.97-0.18,1.55-0.18c0.52,0,0.98,0.05,1.36,0.14
		c0.39,0.1,0.72,0.2,0.98,0.31c0.26,0.11,0.46,0.22,0.6,0.31c0.14,0.1,0.22,0.14,0.23,0.14c0.02,0,0.05-0.02,0.1-0.06
		c0.05-0.04,0.1-0.09,0.16-0.14c0.06-0.06,0.11-0.12,0.18-0.2c0.06-0.07,0.12-0.15,0.17-0.23h0.14v2.91L302.01,161.8z
		 M287.53,159.16c-0.2,0.12-0.34,0.31-0.45,0.56c-0.06,0.13-0.1,0.37-0.12,0.72c-0.02,0.35-0.04,0.73-0.05,1.12
		c-0.02,0.37-0.03,0.81-0.05,1.32c-0.01,0.51-0.02,1.05-0.02,1.63v0.83c0,0.3,0,0.61,0.01,0.93c0.01,0.32,0.01,0.63,0.01,0.94v0.85
		c0,0.03-0.01,0.06-0.03,0.08c-0.02,0.02-0.05,0.03-0.1,0.03c-0.07,0-0.15-0.04-0.23-0.13c-0.74-0.85-1.41-1.63-2.01-2.34
		c-0.61-0.71-1.18-1.39-1.74-2.03c-0.55-0.65-1.09-1.28-1.62-1.89c-0.53-0.62-1.09-1.25-1.68-1.91v5.49c0,0.44,0.01,0.84,0.03,1.2
		c0.02,0.36,0.08,0.62,0.16,0.79c0.1,0.2,0.24,0.35,0.45,0.45c0.2,0.1,0.48,0.17,0.84,0.21v0.13h-3.2v-0.13
		c0.21-0.03,0.42-0.08,0.62-0.16c0.21-0.08,0.37-0.22,0.49-0.41c0.12-0.18,0.2-0.45,0.23-0.81c0.03-0.35,0.06-0.78,0.08-1.27
		c0.02-0.37,0.03-0.81,0.04-1.32c0.01-0.51,0.01-1.05,0.01-1.63v-0.62v-0.48v-0.48c0-0.17-0.01-0.39-0.01-0.64
		c-0.03-0.25-0.09-0.46-0.18-0.62c-0.1-0.16-0.21-0.29-0.34-0.38c-0.13-0.09-0.27-0.16-0.42-0.19c-0.15-0.04-0.3-0.07-0.43-0.09
		v-0.13h2.64l6.16,7.2v-4.42c0-0.35-0.01-0.68-0.01-0.99c-0.01-0.32-0.05-0.57-0.12-0.75c-0.09-0.24-0.24-0.44-0.46-0.59
		c-0.22-0.15-0.54-0.26-0.95-0.32v-0.13h3.22v0.13C287.99,158.95,287.73,159.04,287.53,159.16 M272.53,168.14h-7.96v-0.13
		c0.22-0.04,0.42-0.09,0.6-0.17c0.19-0.08,0.34-0.19,0.46-0.32c0.04-0.05,0.08-0.13,0.1-0.23c0.03-0.1,0.05-0.21,0.07-0.34
		c0.02-0.13,0.04-0.27,0.05-0.41c0.01-0.14,0.01-0.28,0.01-0.42c0-0.12,0-0.29,0.01-0.49c0.01-0.21,0.01-0.44,0.01-0.68
		c0.01-0.25,0.01-0.5,0.01-0.76v-0.75v-2.54c0-0.16,0-0.32-0.01-0.48c0-0.17-0.01-0.32-0.03-0.47c-0.01-0.15-0.03-0.28-0.07-0.4
		c-0.03-0.12-0.07-0.2-0.12-0.25c-0.13-0.14-0.27-0.23-0.42-0.27c-0.15-0.04-0.34-0.07-0.57-0.11v-0.13h7.18l0.88,2.14l-0.13,0.07
		c-0.7-0.88-1.36-1.46-1.98-1.77c-0.15-0.07-0.42-0.13-0.82-0.18c-0.4-0.05-0.88-0.08-1.46-0.08c-0.18,0-0.37,0.01-0.57,0.02
		s-0.34,0.03-0.42,0.04c-0.02,0.14-0.03,0.43-0.05,0.86s-0.02,0.94-0.02,1.51v0.83c0,0.23,0,0.41,0.01,0.55
		c0.01,0.14,0.01,0.25,0.01,0.33v0.14h0.26c0.13,0,0.28,0,0.45-0.01c0.17-0.01,0.34-0.02,0.51-0.03s0.31-0.03,0.42-0.06
		c0.26-0.06,0.48-0.14,0.65-0.25c0.17-0.1,0.31-0.23,0.42-0.38c0.11-0.15,0.2-0.32,0.26-0.51c0.07-0.19,0.12-0.41,0.18-0.66h0.16
		v4.1h-0.16c-0.07-0.28-0.18-0.56-0.32-0.86s-0.29-0.52-0.45-0.66c-0.14-0.12-0.31-0.22-0.5-0.3c-0.2-0.08-0.42-0.13-0.68-0.14
		c-0.13-0.01-0.24-0.01-0.32-0.02c-0.09,0-0.17-0.01-0.26-0.01h-0.26h-0.34c-0.02,0.12-0.03,0.3-0.03,0.53v0.73v0.39v0.44
		c0,0.14,0,0.27,0.01,0.4c0.01,0.13,0.01,0.23,0.01,0.32c0.01,0.28,0.02,0.54,0.04,0.79c0.02,0.25,0.07,0.43,0.15,0.55
		s0.26,0.21,0.56,0.26c0.29,0.05,0.61,0.08,0.96,0.08c0.15,0,0.34,0,0.57-0.01c0.23-0.01,0.47-0.03,0.72-0.07
		c0.28-0.04,0.53-0.1,0.77-0.2c0.23-0.1,0.46-0.24,0.68-0.42c0.22-0.18,0.43-0.4,0.63-0.67c0.2-0.26,0.41-0.58,0.63-0.96l0.14,0.04
		L272.53,168.14z M255.42,168.14v-0.13c0.22-0.04,0.42-0.09,0.61-0.17c0.19-0.08,0.34-0.19,0.47-0.34c0.04-0.05,0.08-0.13,0.1-0.22
		c0.02-0.1,0.04-0.21,0.05-0.34c0.01-0.13,0.02-0.27,0.03-0.41c0-0.14,0.01-0.28,0.01-0.42c0-0.12,0-0.29,0.01-0.49
		c0-0.21,0.01-0.44,0.01-0.68c0-0.25,0.01-0.5,0.01-0.76v-0.75v-2.54v-0.47c0-0.16-0.01-0.3-0.02-0.44
		c-0.01-0.13-0.03-0.26-0.06-0.36c-0.03-0.11-0.07-0.19-0.12-0.25c-0.12-0.15-0.27-0.25-0.45-0.32c-0.18-0.06-0.38-0.11-0.61-0.14
		v-0.13h3.89v0.13c-0.18,0.03-0.38,0.07-0.59,0.14c-0.21,0.07-0.37,0.21-0.48,0.42c-0.08,0.15-0.12,0.33-0.12,0.56
		c-0.01,0.23-0.01,0.44-0.02,0.64c0,0.22,0,0.43-0.01,0.64c-0.01,0.21-0.01,0.43-0.01,0.64v0.68v0.74v2.94c0,0.25,0,0.49,0.01,0.73
		c0.01,0.23,0.05,0.4,0.12,0.49c0.1,0.15,0.27,0.26,0.49,0.34c0.23,0.08,0.43,0.13,0.61,0.14v0.13H255.42z M247.29,160.04
		c-0.22-0.34-0.53-0.61-0.95-0.81c-0.21-0.1-0.43-0.16-0.66-0.21c-0.23-0.04-0.47-0.07-0.72-0.07c-0.18,0-0.33,0-0.44,0.01
		s-0.2,0.02-0.26,0.03c-0.01,0.05-0.02,0.1-0.03,0.14s-0.01,0.09-0.02,0.15c-0.01,0.06-0.01,0.15-0.01,0.25
		c-0.01,0.11-0.01,0.26-0.02,0.46c-0.01,0.3-0.01,0.65-0.02,1.03c-0.01,0.38-0.01,0.75-0.01,1.1v0.94v0.49c0.36,0,0.69-0.01,1-0.05
		c0.31-0.03,0.6-0.09,0.89-0.19c0.28-0.09,0.52-0.2,0.71-0.35s0.36-0.31,0.49-0.5c0.12-0.19,0.22-0.39,0.28-0.6s0.09-0.44,0.09-0.68
		C247.62,160.77,247.51,160.38,247.29,160.04 M248.58,168.14c-0.08-0.08-0.13-0.14-0.17-0.18c-0.04-0.04-0.07-0.08-0.12-0.14
		s-0.1-0.13-0.16-0.23c-0.07-0.1-0.17-0.25-0.31-0.45c-0.17-0.24-0.31-0.46-0.43-0.66c-0.13-0.19-0.25-0.39-0.38-0.58
		s-0.27-0.38-0.42-0.58c-0.15-0.2-0.33-0.41-0.54-0.66c-0.17-0.2-0.36-0.39-0.57-0.56c-0.2-0.17-0.42-0.28-0.64-0.32
		c-0.17-0.04-0.29-0.05-0.38-0.05c-0.08,0-0.18,0-0.3-0.01v1.47c0,0.42,0,0.77,0.01,1.05c0.01,0.28,0.02,0.52,0.03,0.71
		c0.01,0.2,0.06,0.36,0.14,0.49c0.07,0.11,0.2,0.23,0.4,0.35c0.2,0.12,0.48,0.18,0.83,0.2v0.13h-4.16v-0.13
		c0.22-0.04,0.42-0.09,0.62-0.16s0.36-0.17,0.47-0.31c0.04-0.05,0.08-0.13,0.1-0.23c0.03-0.1,0.05-0.22,0.06-0.35
		c0.01-0.13,0.02-0.27,0.03-0.42c0.01-0.15,0.01-0.29,0.01-0.43c0-0.12,0-0.29,0.01-0.49c0-0.21,0.01-0.44,0.01-0.68
		c0-0.25,0.01-0.5,0.01-0.76v-0.75v-2.54c0-0.16,0-0.31-0.01-0.47c0-0.16-0.01-0.31-0.03-0.46c-0.01-0.14-0.04-0.27-0.07-0.39
		c-0.03-0.12-0.07-0.2-0.12-0.25c-0.13-0.14-0.27-0.23-0.43-0.28c-0.16-0.05-0.36-0.09-0.59-0.12v-0.13h0.53c0.3,0,0.63,0,1-0.01
		c0.37,0,0.74-0.01,1.12-0.01h0.91c0.58,0,1.1,0.02,1.55,0.05c0.45,0.04,0.86,0.15,1.24,0.35c0.38,0.2,0.69,0.47,0.92,0.81
		c0.23,0.34,0.35,0.77,0.35,1.29c0,0.32-0.06,0.61-0.17,0.87c-0.12,0.26-0.27,0.48-0.47,0.68c-0.19,0.2-0.42,0.36-0.68,0.5
		c-0.26,0.14-0.53,0.26-0.82,0.35v0.04c0.15,0.08,0.29,0.19,0.43,0.34c0.14,0.15,0.27,0.31,0.4,0.49c0.23,0.33,0.47,0.69,0.73,1.07
		c0.26,0.38,0.5,0.72,0.71,1.01c0.32,0.45,0.63,0.78,0.94,0.99c0.3,0.21,0.66,0.34,1.07,0.4v0.13H248.58z M236.1,168.14h-7.96v-0.13
		c0.22-0.04,0.42-0.09,0.61-0.17c0.19-0.08,0.34-0.19,0.46-0.32c0.04-0.05,0.08-0.13,0.1-0.23c0.03-0.1,0.05-0.21,0.07-0.34
		c0.02-0.13,0.04-0.27,0.04-0.41c0.01-0.14,0.01-0.28,0.01-0.42c0-0.12,0-0.29,0.01-0.49c0-0.21,0.01-0.44,0.01-0.68
		c0-0.25,0.01-0.5,0.01-0.76v-0.75v-2.54c0-0.16,0-0.32-0.01-0.48c-0.01-0.17-0.01-0.32-0.03-0.47c-0.01-0.15-0.04-0.28-0.07-0.4
		c-0.03-0.12-0.07-0.2-0.12-0.25c-0.13-0.14-0.27-0.23-0.42-0.27c-0.15-0.04-0.34-0.07-0.57-0.11v-0.13h7.18l0.88,2.14l-0.13,0.07
		c-0.7-0.88-1.36-1.46-1.98-1.77c-0.15-0.07-0.42-0.13-0.82-0.18c-0.4-0.05-0.88-0.08-1.46-0.08c-0.18,0-0.37,0.01-0.57,0.02
		c-0.19,0.01-0.34,0.03-0.42,0.04c-0.02,0.14-0.03,0.43-0.04,0.86s-0.02,0.94-0.02,1.51v0.83c0,0.23,0,0.41,0.01,0.55
		c0,0.14,0.01,0.25,0.01,0.33v0.14h0.26c0.13,0,0.28,0,0.45-0.01c0.17-0.01,0.34-0.02,0.51-0.03c0.17-0.01,0.31-0.03,0.42-0.06
		c0.26-0.06,0.48-0.14,0.65-0.25c0.17-0.1,0.31-0.23,0.42-0.38c0.11-0.15,0.19-0.32,0.26-0.51c0.07-0.19,0.12-0.41,0.18-0.66h0.16
		v4.1h-0.16c-0.07-0.28-0.18-0.56-0.32-0.86c-0.14-0.29-0.29-0.52-0.45-0.66c-0.14-0.12-0.31-0.22-0.5-0.3
		c-0.2-0.08-0.42-0.13-0.68-0.14c-0.13-0.01-0.24-0.01-0.33-0.02c-0.09,0-0.17-0.01-0.26-0.01h-0.26h-0.34
		c-0.02,0.12-0.03,0.3-0.03,0.53v0.73v0.39v0.44c0,0.14,0,0.27,0.01,0.4c0,0.13,0.01,0.23,0.01,0.32c0.01,0.28,0.02,0.54,0.05,0.79
		c0.02,0.25,0.07,0.43,0.15,0.55s0.26,0.21,0.56,0.26c0.29,0.05,0.61,0.08,0.96,0.08c0.15,0,0.34,0,0.57-0.01
		c0.23-0.01,0.47-0.03,0.72-0.07c0.28-0.04,0.53-0.1,0.77-0.2c0.23-0.1,0.46-0.24,0.68-0.42c0.22-0.18,0.43-0.4,0.63-0.67
		c0.2-0.26,0.41-0.58,0.63-0.96l0.14,0.04L236.1,168.14z M221.53,160.08c-0.26-0.39-0.59-0.68-1.01-0.88
		c-0.21-0.09-0.43-0.16-0.66-0.19s-0.48-0.05-0.73-0.05c-0.18,0-0.32,0.01-0.42,0.02c-0.1,0.01-0.18,0.02-0.24,0.03
		c-0.01,0.05-0.02,0.1-0.03,0.14s-0.02,0.09-0.03,0.15c-0.01,0.06-0.02,0.15-0.03,0.25c-0.01,0.11-0.02,0.26-0.03,0.46
		c-0.01,0.3-0.02,0.67-0.02,1.1c0,0.43-0.01,0.86-0.01,1.27v1.09v0.57c0.36,0,0.69-0.01,1-0.03c0.31-0.02,0.6-0.08,0.87-0.18
		c0.55-0.19,0.98-0.51,1.27-0.94c0.3-0.44,0.44-0.93,0.44-1.48C221.92,160.92,221.79,160.47,221.53,160.08 M223.16,162.36
		c-0.1,0.26-0.24,0.49-0.41,0.69s-0.37,0.37-0.59,0.51c-0.23,0.14-0.45,0.26-0.69,0.35c-0.24,0.09-0.5,0.15-0.78,0.19
		c-0.28,0.04-0.56,0.08-0.84,0.1c-0.28,0.02-0.56,0.03-0.83,0.03h-0.7v0.71v0.51c0,0.15,0,0.28,0.01,0.41
		c0,0.12,0.01,0.26,0.01,0.41c0.01,0.28,0.02,0.52,0.03,0.71c0.01,0.2,0.06,0.36,0.14,0.49c0.07,0.11,0.2,0.23,0.4,0.34
		c0.2,0.11,0.48,0.18,0.83,0.2v0.13h-4.16v-0.13c0.22-0.04,0.43-0.09,0.62-0.16c0.2-0.07,0.36-0.17,0.47-0.31
		c0.04-0.05,0.08-0.13,0.1-0.23c0.03-0.1,0.05-0.22,0.06-0.35c0.01-0.13,0.02-0.27,0.03-0.42c0.01-0.15,0.01-0.29,0.01-0.43
		c0-0.12,0-0.29,0.01-0.49c0-0.21,0.01-0.44,0.01-0.68c0-0.25,0.01-0.5,0.01-0.76v-0.75v-2.54c0-0.16,0-0.31-0.01-0.47
		c-0.01-0.16-0.01-0.31-0.03-0.46c-0.01-0.14-0.04-0.27-0.07-0.39c-0.03-0.12-0.07-0.2-0.12-0.25c-0.13-0.14-0.3-0.23-0.5-0.28
		c-0.2-0.05-0.42-0.09-0.66-0.12v-0.13h0.31c0.17,0,0.36,0,0.58-0.01c0.22,0,0.46-0.01,0.72-0.01c0.26,0,0.52,0,0.77-0.01
		c0.26,0,0.5-0.01,0.72-0.01h0.58c0.57,0,1.08,0.03,1.52,0.08c0.44,0.06,0.86,0.19,1.25,0.41c0.38,0.21,0.7,0.5,0.95,0.88
		c0.25,0.38,0.38,0.83,0.38,1.35C223.32,161.81,223.27,162.1,223.16,162.36 M210.19,159.48c-0.34,0.28-0.7,0.65-1.08,1.11
		c-0.15,0.17-0.31,0.37-0.49,0.59c-0.18,0.22-0.36,0.43-0.54,0.65c-0.18,0.22-0.36,0.43-0.52,0.63c-0.16,0.2-0.31,0.38-0.44,0.54
		c0.04,0.05,0.11,0.16,0.22,0.31c0.11,0.16,0.24,0.34,0.39,0.56c0.15,0.22,0.31,0.45,0.48,0.7c0.17,0.25,0.34,0.48,0.5,0.71
		c0.16,0.22,0.3,0.43,0.43,0.61c0.13,0.18,0.23,0.32,0.29,0.42c0.17,0.25,0.33,0.48,0.48,0.68c0.14,0.2,0.28,0.37,0.42,0.51
		c0.14,0.14,0.28,0.26,0.43,0.35c0.15,0.09,0.31,0.15,0.49,0.18v0.13h-4.21v-0.13c0.12-0.02,0.25-0.04,0.39-0.06
		c0.14-0.02,0.27-0.05,0.39-0.1c0.12-0.04,0.22-0.1,0.3-0.18c0.08-0.08,0.12-0.18,0.12-0.3c0-0.12-0.06-0.28-0.17-0.49
		c-0.11-0.2-0.24-0.42-0.39-0.64c-0.2-0.31-0.43-0.65-0.68-1.02c-0.26-0.37-0.55-0.78-0.88-1.24c-0.14,0.16-0.29,0.35-0.45,0.55
		c-0.16,0.2-0.33,0.4-0.49,0.6c-0.16,0.2-0.32,0.4-0.47,0.59c-0.15,0.19-0.28,0.36-0.38,0.51c-0.12,0.17-0.23,0.35-0.32,0.52
		c-0.1,0.17-0.14,0.34-0.14,0.49c0,0.12,0.04,0.23,0.12,0.32c0.08,0.09,0.18,0.17,0.3,0.23c0.12,0.06,0.25,0.11,0.39,0.14
		c0.14,0.04,0.27,0.06,0.39,0.08v0.13h-3.44v-0.13c0.35-0.1,0.71-0.28,1.08-0.57c0.37-0.28,0.75-0.64,1.14-1.09
		c0.13-0.15,0.29-0.34,0.48-0.57c0.19-0.23,0.39-0.47,0.6-0.71c0.21-0.25,0.41-0.49,0.6-0.72c0.19-0.23,0.35-0.43,0.48-0.59
		c-0.05-0.07-0.17-0.24-0.36-0.5c-0.19-0.26-0.4-0.56-0.63-0.89c-0.23-0.33-0.47-0.66-0.69-0.98c-0.23-0.33-0.41-0.58-0.55-0.77
		c-0.18-0.25-0.34-0.47-0.49-0.66c-0.14-0.19-0.28-0.35-0.42-0.49c-0.13-0.13-0.28-0.25-0.43-0.34c-0.15-0.09-0.33-0.17-0.53-0.23
		v-0.13h4.24v0.13c-0.11,0.01-0.24,0.03-0.39,0.05c-0.15,0.03-0.28,0.06-0.4,0.1c-0.12,0.04-0.23,0.1-0.31,0.18
		c-0.09,0.08-0.13,0.18-0.13,0.3c0,0.12,0.06,0.28,0.18,0.48c0.12,0.2,0.26,0.41,0.42,0.64c0.22,0.31,0.44,0.63,0.66,0.96
		c0.23,0.32,0.5,0.72,0.82,1.18c0.29-0.33,0.58-0.69,0.88-1.08c0.3-0.39,0.56-0.73,0.79-1.01c0.1-0.14,0.22-0.31,0.34-0.52
		c0.12-0.21,0.18-0.38,0.18-0.52c0-0.12-0.04-0.22-0.12-0.31c-0.08-0.09-0.18-0.16-0.3-0.22c-0.12-0.06-0.24-0.11-0.38-0.14
		c-0.14-0.04-0.26-0.06-0.38-0.08v-0.13h3.39v0.13C210.92,159.01,210.53,159.19,210.19,159.48 M197.03,168.14h-7.96v-0.13
		c0.22-0.04,0.42-0.09,0.61-0.17c0.19-0.08,0.34-0.19,0.46-0.32c0.04-0.05,0.08-0.13,0.1-0.23c0.03-0.1,0.05-0.21,0.07-0.34
		c0.02-0.13,0.04-0.27,0.04-0.41c0.01-0.14,0.01-0.28,0.01-0.42c0-0.12,0-0.29,0.01-0.49c0-0.21,0.01-0.44,0.01-0.68
		c0-0.25,0.01-0.5,0.01-0.76v-0.75v-2.54c0-0.16,0-0.32-0.01-0.48c-0.01-0.17-0.01-0.32-0.03-0.47c-0.01-0.15-0.04-0.28-0.07-0.4
		c-0.03-0.12-0.07-0.2-0.12-0.25c-0.13-0.14-0.27-0.23-0.42-0.27c-0.15-0.04-0.34-0.07-0.57-0.11v-0.13h7.18l0.88,2.14l-0.13,0.07
		c-0.7-0.88-1.36-1.46-1.98-1.77c-0.15-0.07-0.42-0.13-0.82-0.18c-0.4-0.05-0.88-0.08-1.46-0.08c-0.18,0-0.37,0.01-0.57,0.02
		c-0.19,0.01-0.34,0.03-0.42,0.04c-0.02,0.14-0.03,0.43-0.05,0.86s-0.02,0.94-0.02,1.51v0.83c0,0.23,0,0.41,0.01,0.55
		c0,0.14,0.01,0.25,0.01,0.33v0.14h0.26c0.13,0,0.28,0,0.45-0.01c0.17-0.01,0.34-0.02,0.51-0.03c0.17-0.01,0.31-0.03,0.42-0.06
		c0.26-0.06,0.48-0.14,0.65-0.25c0.17-0.1,0.31-0.23,0.42-0.38c0.11-0.15,0.19-0.32,0.26-0.51c0.07-0.19,0.12-0.41,0.18-0.66h0.16
		v4.1h-0.16c-0.07-0.28-0.18-0.56-0.32-0.86c-0.14-0.29-0.29-0.52-0.45-0.66c-0.14-0.12-0.31-0.22-0.5-0.3
		c-0.2-0.08-0.42-0.13-0.68-0.14c-0.13-0.01-0.24-0.01-0.32-0.02c-0.09,0-0.17-0.01-0.26-0.01h-0.26h-0.34
		c-0.02,0.12-0.03,0.3-0.03,0.53v0.73v0.39v0.44c0,0.14,0,0.27,0.01,0.4c0,0.13,0.01,0.23,0.01,0.32c0.01,0.28,0.02,0.54,0.05,0.79
		c0.02,0.25,0.07,0.43,0.15,0.55s0.27,0.21,0.56,0.26c0.29,0.05,0.62,0.08,0.96,0.08c0.15,0,0.34,0,0.57-0.01
		c0.23-0.01,0.47-0.03,0.72-0.07c0.28-0.04,0.53-0.1,0.77-0.2c0.23-0.1,0.46-0.24,0.68-0.42c0.22-0.18,0.43-0.4,0.63-0.67
		c0.2-0.26,0.41-0.58,0.63-0.96l0.14,0.04L197.03,168.14z M177.56,159.09c-0.17,0.09-0.33,0.2-0.48,0.34
		c-0.15,0.14-0.29,0.3-0.42,0.49c-0.13,0.19-0.28,0.41-0.43,0.65c-0.1,0.17-0.25,0.39-0.44,0.67c-0.19,0.28-0.38,0.57-0.57,0.88
		c-0.19,0.3-0.38,0.59-0.56,0.87c-0.18,0.28-0.33,0.49-0.43,0.65v2.61c0,0.25,0.01,0.5,0.02,0.74c0.01,0.24,0.05,0.4,0.12,0.5
		c0.13,0.19,0.3,0.32,0.51,0.38c0.21,0.06,0.41,0.11,0.6,0.14v0.13h-4v-0.13c0.23-0.03,0.42-0.07,0.59-0.12
		c0.17-0.06,0.35-0.19,0.54-0.41c0.04-0.04,0.08-0.12,0.1-0.22c0.02-0.1,0.04-0.22,0.05-0.35c0.01-0.13,0.02-0.27,0.03-0.42
		c0-0.15,0.01-0.29,0.01-0.43c0.01-0.24,0.01-0.53,0.02-0.87c0-0.33,0.01-0.74,0.01-1.21c-0.02-0.03-0.07-0.11-0.16-0.25
		c-0.09-0.14-0.19-0.31-0.32-0.51c-0.13-0.2-0.26-0.43-0.42-0.68c-0.15-0.25-0.3-0.5-0.45-0.73c-0.15-0.24-0.29-0.46-0.42-0.67
		c-0.13-0.21-0.24-0.38-0.33-0.51c-0.16-0.25-0.32-0.48-0.45-0.69c-0.13-0.21-0.27-0.39-0.41-0.53c-0.14-0.15-0.28-0.26-0.41-0.35
		c-0.13-0.09-0.29-0.13-0.46-0.14v-0.13h3.94v0.13c-0.13,0.01-0.26,0.02-0.39,0.04s-0.25,0.05-0.36,0.08
		c-0.11,0.04-0.2,0.09-0.27,0.16c-0.07,0.07-0.1,0.15-0.1,0.27c0,0.11,0.06,0.28,0.19,0.51c0.13,0.23,0.26,0.46,0.4,0.7
		c0.1,0.16,0.21,0.35,0.34,0.57c0.13,0.22,0.27,0.46,0.43,0.7c0.16,0.25,0.31,0.5,0.47,0.76c0.16,0.26,0.31,0.51,0.45,0.74
		c0.11-0.16,0.25-0.38,0.42-0.63c0.16-0.26,0.33-0.51,0.5-0.78c0.17-0.26,0.33-0.52,0.48-0.76c0.15-0.24,0.27-0.43,0.35-0.57
		c0.04-0.07,0.09-0.15,0.14-0.24c0.05-0.09,0.1-0.19,0.15-0.29c0.05-0.1,0.09-0.2,0.12-0.31c0.03-0.1,0.05-0.2,0.05-0.29
		c0-0.14-0.04-0.25-0.1-0.33c-0.07-0.08-0.16-0.14-0.27-0.18s-0.23-0.08-0.36-0.1c-0.13-0.02-0.26-0.04-0.38-0.06v-0.13h3v0.13
		C177.94,158.95,177.73,159.01,177.56,159.09 M161.79,160.04c-0.22-0.34-0.53-0.61-0.95-0.81c-0.21-0.1-0.43-0.16-0.66-0.21
		c-0.23-0.04-0.47-0.07-0.72-0.07c-0.18,0-0.33,0-0.44,0.01c-0.11,0.01-0.2,0.02-0.26,0.03c-0.01,0.05-0.02,0.1-0.03,0.14
		c-0.01,0.04-0.01,0.09-0.02,0.15c0,0.06-0.01,0.15-0.01,0.25c0,0.11-0.01,0.26-0.02,0.46c-0.01,0.3-0.01,0.65-0.02,1.03
		c0,0.38-0.01,0.75-0.01,1.1v0.94v0.49c0.36,0,0.69-0.01,0.99-0.05c0.31-0.03,0.6-0.09,0.89-0.19c0.28-0.09,0.51-0.2,0.71-0.35
		c0.2-0.15,0.36-0.31,0.49-0.5c0.13-0.19,0.22-0.39,0.28-0.6c0.06-0.22,0.09-0.44,0.09-0.68
		C162.12,160.77,162.01,160.38,161.79,160.04 M163.08,168.14c-0.08-0.08-0.14-0.14-0.17-0.18c-0.04-0.04-0.07-0.08-0.12-0.14
		c-0.04-0.05-0.1-0.13-0.16-0.23c-0.07-0.1-0.17-0.25-0.3-0.45c-0.17-0.24-0.31-0.46-0.44-0.66c-0.12-0.19-0.25-0.39-0.38-0.58
		c-0.13-0.19-0.27-0.38-0.42-0.58c-0.15-0.2-0.33-0.41-0.54-0.66c-0.17-0.2-0.36-0.39-0.57-0.56c-0.2-0.17-0.42-0.28-0.64-0.32
		c-0.16-0.04-0.29-0.05-0.38-0.05c-0.08,0-0.18,0-0.3-0.01v1.47c0,0.42,0,0.77,0.01,1.05c0.01,0.28,0.02,0.52,0.03,0.71
		c0.01,0.2,0.06,0.36,0.14,0.49c0.07,0.11,0.2,0.23,0.4,0.35c0.2,0.12,0.48,0.18,0.83,0.2v0.13h-4.16v-0.13
		c0.22-0.04,0.42-0.09,0.62-0.16c0.2-0.07,0.35-0.17,0.47-0.31c0.04-0.05,0.08-0.13,0.1-0.23c0.03-0.1,0.05-0.22,0.06-0.35
		c0.01-0.13,0.02-0.27,0.03-0.42c0.01-0.15,0.01-0.29,0.01-0.43c0-0.12,0-0.29,0.01-0.49c0-0.21,0.01-0.44,0.01-0.68
		c0-0.25,0.01-0.5,0.01-0.76v-0.75v-2.54c0-0.16,0-0.31-0.01-0.47c0-0.16-0.01-0.31-0.03-0.46c-0.01-0.14-0.03-0.27-0.07-0.39
		c-0.03-0.12-0.07-0.2-0.12-0.25c-0.13-0.14-0.27-0.23-0.44-0.28c-0.16-0.05-0.36-0.09-0.59-0.12v-0.13h0.53c0.29,0,0.63,0,1-0.01
		c0.37,0,0.74-0.01,1.12-0.01h0.91c0.58,0,1.1,0.02,1.55,0.05c0.45,0.04,0.86,0.15,1.24,0.35c0.38,0.2,0.69,0.47,0.92,0.81
		c0.23,0.34,0.35,0.77,0.35,1.29c0,0.32-0.06,0.61-0.18,0.87c-0.12,0.26-0.27,0.48-0.47,0.68c-0.19,0.2-0.42,0.36-0.68,0.5
		c-0.26,0.14-0.53,0.26-0.82,0.35v0.04c0.15,0.08,0.29,0.19,0.43,0.34c0.14,0.15,0.27,0.31,0.4,0.49c0.22,0.33,0.47,0.69,0.73,1.07
		c0.27,0.38,0.5,0.72,0.71,1.01c0.32,0.45,0.63,0.78,0.94,0.99c0.3,0.21,0.66,0.34,1.07,0.4v0.13H163.08z M150.46,159.16
		c-0.19,0.12-0.33,0.31-0.43,0.56c-0.03,0.06-0.05,0.16-0.07,0.3c-0.02,0.14-0.04,0.3-0.06,0.48c-0.02,0.18-0.03,0.38-0.04,0.58
		c-0.01,0.2-0.01,0.41-0.01,0.6c-0.01,0.37-0.02,0.79-0.03,1.25s-0.03,0.98-0.05,1.56c-0.01,0.17-0.02,0.37-0.03,0.62
		c-0.01,0.25-0.05,0.52-0.12,0.8c-0.07,0.28-0.18,0.56-0.33,0.85c-0.15,0.28-0.37,0.54-0.64,0.77c-0.28,0.23-0.63,0.41-1.07,0.55
		c-0.43,0.13-0.97,0.2-1.6,0.2c-0.62,0-1.15-0.07-1.58-0.19c-0.43-0.13-0.78-0.31-1.06-0.53c-0.28-0.22-0.49-0.46-0.64-0.73
		c-0.15-0.26-0.26-0.52-0.34-0.78c-0.07-0.26-0.12-0.49-0.13-0.7c-0.01-0.21-0.02-0.37-0.02-0.47c0-0.24,0-0.56,0.01-0.95
		c0.01-0.39,0.01-0.82,0.01-1.3v-1.73v-0.47c0-0.16-0.01-0.3-0.02-0.44c-0.01-0.13-0.03-0.26-0.06-0.36
		c-0.03-0.11-0.06-0.19-0.12-0.25c-0.12-0.15-0.27-0.25-0.45-0.32c-0.18-0.06-0.38-0.11-0.6-0.14v-0.13h3.87v0.13
		c-0.12,0.02-0.25,0.04-0.39,0.08c-0.14,0.04-0.27,0.09-0.38,0.16c-0.11,0.07-0.21,0.18-0.29,0.31c-0.08,0.13-0.12,0.29-0.13,0.49
		c-0.01,0.22-0.02,0.42-0.02,0.6c0,0.17-0.01,0.34-0.01,0.51v0.52v0.61v0.79v0.66c0,0.2,0,0.39,0.01,0.58
		c0.01,0.19,0.01,0.38,0.01,0.59c0.01,0.46,0.08,0.88,0.21,1.25c0.13,0.38,0.31,0.7,0.55,0.96c0.23,0.26,0.52,0.47,0.86,0.61
		c0.34,0.14,0.72,0.21,1.16,0.21c0.49,0,0.91-0.06,1.25-0.17c0.34-0.11,0.63-0.27,0.86-0.47c0.23-0.2,0.41-0.43,0.55-0.69
		c0.13-0.26,0.23-0.54,0.3-0.83c0.07-0.3,0.11-0.6,0.13-0.9c0.02-0.31,0.03-0.61,0.03-0.9v-0.64v-0.53v-0.51v-0.53
		c0-0.17,0-0.35-0.01-0.53c0-0.18-0.01-0.36-0.02-0.52c-0.01-0.16-0.02-0.32-0.04-0.46c-0.02-0.14-0.04-0.26-0.08-0.35
		c-0.09-0.24-0.24-0.44-0.45-0.59c-0.21-0.15-0.53-0.26-0.94-0.32v-0.13h3.22v0.13C150.9,158.95,150.65,159.04,150.46,159.16
		 M135.65,159.48c-0.34,0.28-0.7,0.65-1.08,1.11c-0.15,0.17-0.31,0.37-0.49,0.59c-0.18,0.22-0.36,0.43-0.54,0.65
		s-0.36,0.43-0.52,0.63c-0.17,0.2-0.31,0.38-0.44,0.54c0.03,0.05,0.11,0.16,0.22,0.31c0.11,0.16,0.24,0.34,0.39,0.56
		c0.15,0.22,0.31,0.45,0.48,0.7c0.17,0.25,0.34,0.48,0.5,0.71c0.16,0.22,0.31,0.43,0.44,0.61c0.13,0.18,0.23,0.32,0.29,0.42
		c0.17,0.25,0.33,0.48,0.47,0.68c0.14,0.2,0.28,0.37,0.42,0.51c0.14,0.14,0.28,0.26,0.43,0.35c0.15,0.09,0.31,0.15,0.49,0.18v0.13
		h-4.21v-0.13c0.12-0.02,0.25-0.04,0.39-0.06c0.14-0.02,0.27-0.05,0.39-0.1c0.12-0.04,0.22-0.1,0.3-0.18
		c0.08-0.08,0.12-0.18,0.12-0.3c0-0.12-0.06-0.28-0.17-0.49c-0.11-0.2-0.24-0.42-0.39-0.64c-0.2-0.31-0.43-0.65-0.68-1.02
		c-0.26-0.37-0.55-0.78-0.88-1.24c-0.14,0.16-0.29,0.35-0.45,0.55c-0.17,0.2-0.33,0.4-0.49,0.6c-0.17,0.2-0.32,0.4-0.48,0.59
		c-0.15,0.19-0.28,0.36-0.38,0.51c-0.12,0.17-0.23,0.35-0.33,0.52c-0.1,0.17-0.14,0.34-0.14,0.49c0,0.12,0.04,0.23,0.12,0.32
		c0.08,0.09,0.18,0.17,0.3,0.23c0.12,0.06,0.25,0.11,0.39,0.14c0.14,0.04,0.27,0.06,0.39,0.08v0.13h-3.44v-0.13
		c0.35-0.1,0.71-0.28,1.08-0.57c0.37-0.28,0.75-0.64,1.14-1.09c0.13-0.15,0.29-0.34,0.48-0.57c0.19-0.23,0.39-0.47,0.6-0.71
		c0.21-0.25,0.41-0.49,0.6-0.72c0.19-0.23,0.35-0.43,0.48-0.59c-0.05-0.07-0.17-0.24-0.36-0.5c-0.19-0.26-0.4-0.56-0.63-0.89
		c-0.23-0.33-0.47-0.66-0.7-0.98c-0.23-0.33-0.41-0.58-0.55-0.77c-0.18-0.25-0.35-0.47-0.49-0.66c-0.14-0.19-0.28-0.35-0.42-0.49
		c-0.13-0.13-0.28-0.25-0.43-0.34c-0.15-0.09-0.33-0.17-0.53-0.23v-0.13h4.24v0.13c-0.11,0.01-0.24,0.03-0.39,0.05
		c-0.15,0.03-0.28,0.06-0.4,0.1c-0.12,0.04-0.23,0.1-0.31,0.18c-0.09,0.08-0.13,0.18-0.13,0.3c0,0.12,0.06,0.28,0.18,0.48
		c0.12,0.2,0.26,0.41,0.42,0.64c0.22,0.31,0.44,0.63,0.66,0.96c0.23,0.32,0.5,0.72,0.82,1.18c0.29-0.33,0.58-0.69,0.88-1.08
		s0.56-0.73,0.79-1.01c0.1-0.14,0.22-0.31,0.34-0.52c0.12-0.21,0.18-0.38,0.18-0.52c0-0.12-0.04-0.22-0.12-0.31
		c-0.08-0.09-0.18-0.16-0.3-0.22c-0.12-0.06-0.24-0.11-0.38-0.14c-0.14-0.04-0.27-0.06-0.38-0.08v-0.13h3.39v0.13
		C136.38,159.01,135.99,159.19,135.65,159.48 M122.36,159.16c-0.19,0.12-0.33,0.31-0.43,0.56c-0.03,0.06-0.05,0.16-0.07,0.3
		c-0.02,0.14-0.04,0.3-0.06,0.48c-0.02,0.18-0.03,0.38-0.04,0.58c-0.01,0.2-0.01,0.41-0.01,0.6c-0.01,0.37-0.02,0.79-0.03,1.25
		s-0.03,0.98-0.04,1.56c-0.01,0.17-0.02,0.37-0.03,0.62c-0.01,0.25-0.05,0.52-0.12,0.8c-0.07,0.28-0.18,0.56-0.33,0.85
		c-0.15,0.28-0.37,0.54-0.64,0.77c-0.28,0.23-0.63,0.41-1.07,0.55c-0.43,0.13-0.97,0.2-1.6,0.2c-0.62,0-1.15-0.07-1.58-0.19
		c-0.43-0.13-0.78-0.31-1.06-0.53c-0.28-0.22-0.49-0.46-0.64-0.73c-0.15-0.26-0.26-0.52-0.34-0.78c-0.07-0.26-0.12-0.49-0.13-0.7
		c-0.01-0.21-0.02-0.37-0.02-0.47c0-0.24,0-0.56,0.01-0.95c0-0.39,0.01-0.82,0.01-1.3v-1.73v-0.47c0-0.16-0.01-0.3-0.02-0.44
		c-0.01-0.13-0.03-0.26-0.06-0.36c-0.03-0.11-0.07-0.19-0.12-0.25c-0.12-0.15-0.27-0.25-0.45-0.32c-0.18-0.06-0.38-0.11-0.6-0.14
		v-0.13h3.87v0.13c-0.12,0.02-0.25,0.04-0.39,0.08c-0.14,0.04-0.26,0.09-0.38,0.16c-0.11,0.07-0.21,0.18-0.29,0.31
		s-0.12,0.29-0.13,0.49c-0.01,0.22-0.01,0.42-0.02,0.6c0,0.17-0.01,0.34-0.01,0.51v0.52v0.61v0.79v0.66c0,0.2,0,0.39,0.01,0.58
		c0.01,0.19,0.01,0.38,0.01,0.59c0.01,0.46,0.08,0.88,0.21,1.25s0.31,0.7,0.55,0.96c0.23,0.26,0.52,0.47,0.86,0.61
		c0.34,0.14,0.72,0.21,1.16,0.21c0.49,0,0.91-0.06,1.25-0.17c0.34-0.11,0.63-0.27,0.86-0.47c0.23-0.2,0.41-0.43,0.55-0.69
		c0.14-0.26,0.23-0.54,0.3-0.83c0.07-0.3,0.11-0.6,0.13-0.9c0.02-0.31,0.03-0.61,0.03-0.9v-0.64v-0.53v-0.51v-0.53
		c0-0.17,0-0.35-0.01-0.53c0-0.18-0.01-0.36-0.02-0.52c-0.01-0.16-0.02-0.32-0.04-0.46c-0.02-0.14-0.04-0.26-0.08-0.35
		c-0.09-0.24-0.24-0.44-0.45-0.59c-0.21-0.15-0.53-0.26-0.94-0.32v-0.13h3.22v0.13C122.8,158.95,122.54,159.04,122.36,159.16
		 M107.96,168.14h-8.35v-0.13c0.22-0.04,0.43-0.09,0.64-0.17c0.21-0.08,0.38-0.19,0.5-0.32c0.04-0.05,0.08-0.13,0.11-0.23
		c0.03-0.1,0.05-0.21,0.07-0.34c0.02-0.13,0.03-0.27,0.05-0.41c0.01-0.14,0.02-0.28,0.02-0.42c0-0.12,0-0.29,0.01-0.49
		c0-0.21,0.01-0.44,0.01-0.68c0-0.25,0.01-0.5,0.01-0.76v-0.75v-2.52v-0.46c0-0.16-0.01-0.3-0.02-0.44
		c-0.01-0.13-0.03-0.25-0.06-0.36c-0.03-0.1-0.07-0.19-0.12-0.25c-0.12-0.15-0.28-0.26-0.49-0.34c-0.2-0.08-0.42-0.13-0.64-0.16
		v-0.13h4.15v0.13c-0.11,0.02-0.25,0.04-0.4,0.08s-0.3,0.09-0.44,0.17c-0.14,0.08-0.26,0.19-0.36,0.33
		c-0.1,0.14-0.15,0.33-0.16,0.57c-0.01,0.3-0.01,0.58-0.02,0.83c-0.01,0.25-0.01,0.5-0.01,0.74c-0.01,0.24-0.01,0.49-0.01,0.75v0.87
		v0.81v0.69c0,0.22,0,0.46,0.01,0.7c0,0.24,0.01,0.5,0.01,0.8c0.01,0.28,0.02,0.54,0.03,0.79c0.01,0.25,0.06,0.44,0.14,0.56
		c0.04,0.04,0.1,0.09,0.21,0.13c0.1,0.04,0.23,0.08,0.38,0.11c0.15,0.03,0.31,0.06,0.48,0.08c0.17,0.02,0.35,0.03,0.52,0.03
		c0.07,0,0.18,0,0.33-0.01c0.15-0.01,0.32-0.01,0.5-0.03s0.37-0.03,0.56-0.06c0.19-0.03,0.36-0.06,0.51-0.1
		c0.35-0.09,0.63-0.22,0.86-0.38c0.23-0.16,0.43-0.34,0.59-0.54c0.17-0.2,0.3-0.42,0.42-0.66c0.11-0.24,0.22-0.49,0.33-0.75
		l0.13,0.04L107.96,168.14z"/>
</g>
</svg>
